<svg id="Layer_1" data-name="Layer 1" xmlns="http://www.w3.org/2000/svg" viewBox="0 0 226.91 226.6"><defs><style>.cls-1{fill:#d3ad31;}.cls-2{fill:#fff;stroke:#533131;stroke-width:1.5px;}</style></defs><circle class="cls-1" cx="113.3" cy="113.3" r="113.3"/><path class="cls-2" d="M19.75,139.23c1.9-13.9,9.5-21.7,31.7-32.2,7.3-3.7,10.8-8.2,10.8-13.61,0-4.3-4-7.2-10-7.2S42.65,88,39.15,93a23.62,23.62,0,0,1,3.5-.5,5.13,5.13,0,0,1,5.3,5.2c0,5.2-5.2,9.81-11.2,9.81-5.2,0-8.3-3-8.3-8,0-12.1,14.1-22.5,30.4-22.5,14,0,22.4,6.1,22.4,16.2a20.78,20.78,0,0,1-7.9,16,36.92,36.92,0,0,1-10.8,5.9c-1.7.6-4.8,1.5-10.9,3.2-9.6,2.7-12.7,4.2-17.8,9.1,5.8-2.6,8.6-3.3,13.1-3.3,3.5,0,3.5,0,13.1,2.1a11.08,11.08,0,0,0,1.9.2c3.8,0,5.8-2.3,7.2-8.5h8.7c-1.6,8.4-2.8,11.9-5.3,15.3-3.4,4.8-9.9,7.8-17,7.8-4.2,0-6.2-.6-12.2-3.3-3.7-1.7-6.4-2.4-8.7-2.4-2.5,0-4.3,1.1-6.4,3.9Z"/><path class="cls-2" d="M146.75,99.42c0,23-16.4,41.51-36.7,41.51-13.8,0-23.1-9-23.1-22.3,0-10.2,3.8-21.21,9.6-28.31,7.1-8.5,16.9-13.3,27.1-13.3C137.45,77,146.75,86,146.75,99.42Zm-37-2.09c-2.9,8.2-5,18.6-5,25.5,0,6.5,2.3,9.4,7.4,9.4s9.1-3.9,11.9-11.6c2.9-8.2,5-18.71,5-25.41s-2.3-9.5-7.4-9.5S112.55,89.52,109.75,97.33Z"/><path class="cls-2" d="M145.75,139.73l3.7-17.5h7.9c1.1,4.9,2.6,7.1,6.2,8.8a13.48,13.48,0,0,0,6.2,1.3c5.1,0,8.2-1.9,8.2-5.1,0-2.1-.7-2.4-11.9-5.5-10.3-2.8-14.1-6.1-14.1-12.3,0-4.6,2.5-9.6,6.6-13.11,4.4-3.7,11-5.7,18.9-5.7,5.7,0,8.7.8,14.5,3.9l1.7-2.6h7.1l-3.2,14.91h-7.1c-2.3-4.41-4-6-7.6-7.2a16.73,16.73,0,0,0-5.4-.91c-4.1,0-7,2.11-7,5,0,2.3,1.2,3,9.5,5.2,7.7,2.1,9,2.6,11.8,4.5a10.48,10.48,0,0,1,4.7,8.7c0,4.2-2.5,9.1-6.3,12.5-4.4,3.9-11.8,6.3-19.4,6.3-5.7,0-8.6-.9-15.7-4.7l-2.2,3.5Z"/></svg>