<svg id="Layer_1" data-name="Layer 1" xmlns="http://www.w3.org/2000/svg" viewBox="0 0 682.5 163.87"><defs><style>.cls-1{fill:#d3ad31;stroke:#533131;stroke-width:1.5px;}</style></defs><path class="cls-1" d="M108.07,76h-9a39.76,39.76,0,0,0,.8-7.4,9.68,9.68,0,0,0-2.6-6.9c-1.8-1.9-4.1-2.5-8.8-2.6l-8.7,41.11c-1,4.5-1,4.5-1,5.5,0,2.1,1.7,2.5,9.8,2.7l-1.8,8.5H47.17l1.9-8.5a46,46,0,0,0,8.9-.8c1.8-.6,2.1-1.2,3.3-7.3l8.8-41.21c-9.9-.1-15,4.7-17.8,16.9h-9l5.5-25.8h64.8Z"/><path class="cls-1" d="M105.16,108.88h2.5c3.9-.1,4.7-.8,5.6-4.7L122.06,63a15.17,15.17,0,0,0,.3-2.4c0-1.8-1-2.3-4-2.3H116l1.7-8.1h22.91L135,76.67c7.11-6,11.71-8,18.81-8,7.7,0,12.5,3.6,12.5,9.3a59.37,59.37,0,0,1-1.1,8.1l-3.9,18.11a11.21,11.21,0,0,0-.3,2.4c0,1.7,1,2.3,4,2.3h2.3l-1.7,8h-29.3l1.7-8h1.1c3.9-.1,4.8-.8,5.7-4.7l3.8-18.11a14.47,14.47,0,0,0,.4-3.5c0-3.1-2-4.9-5.5-4.9-5.5,0-8.81,3.7-10.61,12.21l-3,14.3a9.86,9.86,0,0,0-.3,2.4c0,1.7,1,2.3,3.9,2.3h1.1l-1.7,8h-29.4Z"/><path class="cls-1" d="M222.17,101c-5.6,11.8-14.7,17.6-27.61,17.6s-20.3-7-20.3-18.7A33.3,33.3,0,0,1,182,79c5.4-6.7,13.8-10.4,23.21-10.4,12.7,0,20.3,6.8,20.3,18.1a36.9,36.9,0,0,1-1.3,8.81H191.86a44,44,0,0,0-.8,6.3c0,4.7,2.7,7.4,7.5,7.4a13.62,13.62,0,0,0,6.31-1.5c2.7-1.3,3.9-2.9,5.5-6.7Zm-13.1-13.51a40.7,40.7,0,0,0,.5-4.6,5.43,5.43,0,0,0-5.7-5.8,9.9,9.9,0,0,0-5.91,2.1c-1.8,1.5-2.7,3.4-4.2,8.3Z"/><path class="cls-1" d="M322.67,76h-9a39.76,39.76,0,0,0,.8-7.4,9.68,9.68,0,0,0-2.6-6.9c-1.8-1.9-4.1-2.5-8.8-2.6l-8.7,41.11c-1,4.5-1,4.5-1,5.5,0,2.1,1.7,2.5,9.8,2.7l-1.8,8.5H261.76l1.9-8.5a46,46,0,0,0,8.9-.8c1.8-.6,2.1-1.2,3.3-7.3l8.8-41.21c-9.9-.1-15,4.7-17.8,16.9h-9l5.5-25.8h64.81Z"/><path class="cls-1" d="M375.56,86.77c0,18.51-14,31.81-33.4,31.81-14,0-22.4-7-22.4-18.5,0-18.51,14-31.81,33.4-31.81C367.16,68.27,375.56,75.17,375.56,86.77Zm-35-1.3c-2,5.7-3.5,13.51-3.5,17.51,0,4.9,2.2,7.1,7.1,7.1,5.2,0,8.6-2.7,10.6-8.7,1.9-5.6,3.5-13.51,3.5-17.51,0-4.9-2.2-7.1-7.1-7.1C345.86,76.77,342.56,79.47,340.56,85.47Z"/><path class="cls-1" d="M386,86c-.3-6.6-1.2-7.7-6.7-8.1L381,70h27.5l-1.6,7.8h-2c-2.8,0-3.7,1.1-3.7,4.5a16.22,16.22,0,0,0,.1,2.3l1.4,21,10.8-20.51c1.7-3.4,2.4-5.1,2.4-5.9,0-1.1-.7-1.4-3-1.4H411l1.7-7.8h27.21l-1.71,7.9h-1.79c-3.1,0-4.31,1-4.31,3.5l.1,2.6,1.8,21.71,11.51-22.51c1.3-2.4,1.6-3.3,1.6-4.1s-.8-1.3-2.6-1.3a16.36,16.36,0,0,0-2,.1l1.7-7.9h21.1l-1.6,7.9c-5.6.2-7.3,1.3-9.7,6.3l-16.81,32.71h-17L418,93.08l-12.4,23.8H388Z"/><path class="cls-1" d="M509,101c-5.6,11.8-14.71,17.6-27.61,17.6s-20.3-7-20.3-18.7A33.3,33.3,0,0,1,468.76,79c5.4-6.7,13.8-10.4,23.2-10.4,12.71,0,20.31,6.8,20.31,18.1a36.9,36.9,0,0,1-1.3,8.81H478.66a44,44,0,0,0-.8,6.3c0,4.7,2.7,7.4,7.5,7.4a13.61,13.61,0,0,0,6.3-1.5c2.7-1.3,3.9-2.9,5.5-6.7ZM495.86,87.47a40.7,40.7,0,0,0,.5-4.6,5.43,5.43,0,0,0-5.7-5.8,9.88,9.88,0,0,0-5.9,2.1c-1.8,1.5-2.7,3.4-4.2,8.3Z"/><path class="cls-1" d="M512.56,108.88h3c3.9-.1,4.7-.8,5.6-4.7l4.6-21.51a13.06,13.06,0,0,0,.3-2.3c0-1.8-1-2.3-4-2.3h-2.9l1.7-8.1h23.4l-1,4.7c5.3-4.5,8.7-6,13.5-6,5.71,0,9.11,3.1,9.11,8.4,0,6.6-4.9,12-11.11,12-3.6,0-6-2.2-6-5.6,0-3.7,2-6.1,6.3-7.5a6,6,0,0,0-2.7-.8c-4.9,0-9.7,5.9-11.5,14.1l-3.1,14.91a10.5,10.5,0,0,0-.3,2.4c0,1.7,1,2.3,3.9,2.3h4.1l-1.7,8h-32.9Z"/><path class="cls-1" d="M562.26,117.38l3.7-17.5h7.9c1.1,4.9,2.6,7.1,6.2,8.8a13.48,13.48,0,0,0,6.2,1.3c5.1,0,8.2-1.9,8.2-5.1,0-2.1-.7-2.4-11.9-5.5-10.3-2.8-14.1-6.11-14.1-12.31,0-4.6,2.5-9.6,6.6-13.1,4.4-3.7,11-5.7,18.9-5.7,5.7,0,8.7.8,14.51,3.9l1.7-2.6h7.1l-3.2,14.9H607c-2.3-4.4-4-6-7.59-7.2a17.09,17.09,0,0,0-5.41-.9c-4.1,0-7,2.1-7,5,0,2.3,1.2,3,9.5,5.2,7.7,2.1,9,2.6,11.81,4.5a10.5,10.5,0,0,1,4.7,8.71c0,4.2-2.5,9.1-6.31,12.5-4.4,3.9-11.8,6.3-19.4,6.3-5.7,0-8.6-.9-15.7-4.7l-2.2,3.5Z"/></svg>