<?xml version="1.0" encoding="utf-8"?>
<!-- Generator: Adobe Illustrator 26.0.1, SVG Export Plug-In . SVG Version: 6.00 Build 0)  -->
<svg version="1.1" id="Layer_1" xmlns="http://www.w3.org/2000/svg" xmlns:xlink="http://www.w3.org/1999/xlink" x="0px" y="0px"
	 viewBox="0 0 534.7 191" style="enable-background:new 0 0 534.7 191;" xml:space="preserve">
<style type="text/css">
	.st0{fill:#FFFFFF;stroke:#533131;stroke-width:1.5;}
</style>
<path class="st0" d="M3,42.6h1.6C8.3,42.4,9,41.9,11,38L30.7,2h13.9l3.8,36.3c0.4,3.5,1,4.2,3.9,4.3h2.3l-1.3,6.1H27.5l1.3-6.1h2
	c3.6,0,4.7-0.6,4.6-2.3c0-0.3,0-0.6-0.1-0.8l-0.6-5.7H21.4L18.5,39c-0.5,0.7-0.8,1.6-0.8,2.4c0,0.8,1,1.1,3.4,1.1h2.4l-1.3,6.1H1.7
	L3,42.6z M32.6,12.8l-7.9,14.8h9.5L32.6,12.8z"/>
<path class="st0" d="M72.5,43.1h1.8c2.7-0.1,3.3-0.6,3.9-3.3L84.4,11c0.1-0.6,0.2-1.1,0.2-1.7c0-1.3-0.7-1.6-2.8-1.6h-1.7L81.3,2h16
	l-3.9,18.6c5-4.2,8.2-5.6,13.2-5.6c5.4,0,8.8,2.5,8.8,6.5c-0.1,1.9-0.4,3.8-0.8,5.7l-2.7,12.7c-0.1,0.6-0.2,1.1-0.2,1.7
	c0,1.2,0.7,1.6,2.8,1.6h1.6l-1.2,5.6H94.3l1.2-5.6h0.8c2.7-0.1,3.4-0.6,4-3.3l2.7-12.7c0.2-0.8,0.3-1.6,0.3-2.4
	c0-2.2-1.4-3.4-3.9-3.4c-3.9,0-6.2,2.6-7.4,8.5l-2.1,10c-0.1,0.5-0.2,1.1-0.2,1.7c0,1.2,0.7,1.6,2.7,1.6h0.8L92,48.7H71.4L72.5,43.1
	z"/>
<path class="st0" d="M124.6,15.8h17l-5,23.9c-0.1,0.6-0.2,1.2-0.2,1.8c0,1.1,0.6,1.5,2.6,1.5h1.8l-1.2,5.6h-22l1.2-5.6h2.1
	c2.7-0.1,3.4-0.6,3.9-3.3l3-14.1c0.2-0.9,0.4-1.9,0.4-2.8c0-0.9-0.8-1.3-2.7-1.3h-2.2L124.6,15.8z M142.8,6.2
	c-0.2,3.8-3.4,6.9-7.2,7c-2.5,0.1-4.6-1.7-4.7-4.2c0-0.1,0-0.2,0-0.3c0.2-3.9,3.4-7,7.3-7.1c2.5-0.1,4.5,1.9,4.6,4.4
	C142.8,6,142.8,6.1,142.8,6.2z"/>
<path class="st0" d="M143.6,49l2.6-12.2h5.5c0.8,3.4,1.8,5,4.3,6.2c1.4,0.6,2.8,1,4.4,0.9c3.6,0,5.7-1.3,5.7-3.6
	c0-1.5-0.5-1.7-8.3-3.8c-7.2-2-9.9-4.3-9.9-8.6c0.2-3.6,1.8-6.9,4.6-9.2c3.1-2.6,7.7-4,13.2-4c4,0,6.1,0.6,10.1,2.7l1.2-1.8h5
	L179.9,26h-5c-1.6-3.1-2.8-4.2-5.3-5c-1.2-0.4-2.5-0.6-3.8-0.6c-2.9,0-4.9,1.5-4.9,3.5c0,1.6,0.8,2.1,6.6,3.6
	c5.4,1.5,6.3,1.8,8.3,3.2c2,1.4,3.3,3.6,3.3,6.1c0,2.9-1.8,6.4-4.4,8.8c-3.1,2.7-8.3,4.4-13.6,4.4c-4,0-6-0.6-11-3.3l-1.5,2.4H143.6
	z"/>
<path class="st0" d="M185.7,21.5l1.1-5.2c5.7-0.8,9.5-5,12-13.2h6.9L203,15.8h8.4l-1.3,5.7h-8.4l-3.6,17.2c-0.2,0.9-0.4,1.8-0.4,2.7
	c-0.1,1,0.6,2,1.6,2.1c0.2,0,0.3,0,0.5,0c2.2,0,3.2-1.7,4.4-7.3l0.6-3.1h5.6l-1.1,4.9c-1.2,5.5-2.7,8-6.2,10.2
	c-2.5,1.3-5.3,2-8.1,1.9c-5.5,0-8.9-2.7-8.9-7.3c0.1-2,0.4-3.9,0.9-5.8l3.3-15.5L185.7,21.5z"/>
<path class="st0" d="M253.3,27.6c0,13-9.8,22.3-23.4,22.3c-9.8,0-15.7-4.9-15.7-13c0-13,9.8-22.3,23.4-22.3
	C247.4,14.6,253.3,19.5,253.3,27.6z M228.8,26.7c-1.4,4-2.2,8.1-2.4,12.3c0,3.4,1.5,5,5,5c3.6,0,6-1.9,7.4-6.1
	c1.3-4,2.2-8.1,2.4-12.3c0-3.4-1.5-5-5-5C232.5,20.6,230.2,22.5,228.8,26.7z"/>
<path class="st0" d="M253.5,43.1h2.1c2.7-0.1,3.3-0.6,3.9-3.3l3.2-15.1c0.1-0.5,0.2-1.1,0.2-1.6c0-1.3-0.7-1.6-2.8-1.6h-2l1.2-5.7
	h16.4l-0.7,3.3c3.7-3.2,6.1-4.2,9.5-4.2c4,0,6.4,2.2,6.4,5.9c0,4.6-3.4,8.4-7.8,8.4c-2.5,0-4.2-1.5-4.2-3.9c0-2.6,1.4-4.3,4.4-5.2
	c-0.6-0.3-1.2-0.5-1.9-0.6c-3.4,0-6.8,4.1-8.1,9.9l-2.2,10.4c-0.1,0.6-0.2,1.1-0.2,1.7c0,1.2,0.7,1.6,2.7,1.6h2.9l-1.2,5.6h-23
	L253.5,43.1z"/>
<path class="st0" d="M298,25.5c-0.5-2.9-1-3.7-3-3.8h-1.9l1.2-5.8h21.1l-1.3,5.8h-1.6c-2.3,0-3.1,0.4-3.1,1.6c0.1,0.7,0.2,1.3,0.4,2
	l2.6,11.8l6.9-11.3c1.3-2.2,1.6-2.7,1.6-3.2s-0.6-0.8-2.3-0.8H317l1.3-5.8h15.4l-1.2,5.8c-3.9,0.3-4.3,0.6-6.6,4.1l-16,25.7
	c-5.6,9-9.9,12.3-16,12.3c-5.1,0-8.3-2.7-8.3-7.1c-0.2-4.5,3.3-8.3,7.8-8.5c0.1,0,0.1,0,0.2,0c2.7,0,4.5,1.4,4.5,3.7
	c0,3.2-2.5,5.8-5.6,5.8c0,0,0,0,0,0h-1.4c1,1.2,1.8,1.6,2.7,1.6c2-0.2,3.9-1,5.3-2.4c1.6-1.4,2.6-2.7,4.4-6L298,25.5z"/>
<path class="st0" d="M388.7,27.6c0,13-9.8,22.3-23.4,22.3c-9.8,0-15.7-4.9-15.7-13c0-13,9.8-22.3,23.4-22.3
	C382.8,14.6,388.7,19.5,388.7,27.6z M364.2,26.7c-1.4,4-2.2,8.1-2.5,12.3c0,3.4,1.5,5,5,5c3.6,0,6-1.9,7.4-6.1
	c1.3-4,2.2-8.1,2.5-12.2c0-3.4-1.5-5-5-5C367.9,20.6,365.6,22.5,364.2,26.7z"/>
<path class="st0" d="M389.3,42.7c0.9,0.1,1.4,0.1,1.7,0.1c3.1,0,3.6-0.5,4.5-4.9l3.5-16.2h-5.2l1.3-5.8h5.1l0.4-1.9
	c1.3-6.2,2.8-8.6,6.6-10.8c2.9-1.6,6.2-2.5,9.5-2.5c6.1,0,9.9,2.5,9.9,6.4c0.1,3.5-2.7,6.4-6.2,6.5c-2.3,0-3.9-1.4-3.9-3.4
	s1-3.3,3.4-4.5c-0.7-0.2-1.5-0.3-2.2-0.3c-1.5,0-2.9,0.8-3.7,2.1c-0.6,1.2-1,2.6-1.2,3.9l-0.9,4.4h6l-1.3,5.8h-6L407,37.8
	c-0.3,1.1-0.4,2.3-0.5,3.5c0,1.3,0.6,1.5,3.4,1.5c0.4,0,1.1,0,2-0.1l-1.3,6H388L389.3,42.7z"/>
<path class="st0" d="M1.9,119.3L5.8,101h6.2v0.8c0,4,0.7,5.9,2.9,8c2.4,2.4,5.6,3.6,9,3.4c5.7,0,9.8-2.7,9.8-6.6
	c0-2.7-1.6-3.9-7.1-5c-4.5-0.9-8.9-2.2-13.2-4c-3.3-1.7-5.4-5.1-5.4-8.8c0.1-5.1,2.4-9.9,6.4-13.1c4.1-3.2,9.6-4.8,16.1-4.8
	c6,0,9.2,0.9,13.1,3.9l2.1-3.3h5.8l-3.6,17.1h-6.5c0-0.2,0-0.4,0.1-0.6v-0.6c0.3-5.9-4.3-9.9-11.6-9.9c-5,0-8.7,2.7-8.7,6.4
	c0,2,1.5,3.1,5.5,3.9c8.2,1.8,11.9,2.9,14.8,4.4c3.6,1.8,5.8,5.5,5.7,9.4c-0.2,4.9-2.3,9.5-6,12.7c-2.4,2.2-5.4,3.8-8.6,4.5
	c-2.8,0.7-5.6,1.1-8.4,1.2c-3.1-0.1-6.1-0.6-9-1.5c-1.9-0.5-3.6-1.4-5-2.7l-2.6,3.4L1.9,119.3z"/>
<path class="st0" d="M87,109.8c-0.1,0.6-0.2,1.1-0.2,1.7c0,1.2,0.7,1.6,2.8,1.6h1.8l-1.2,5.6H74l1.1-5.1c-4.6,4.4-8,6-13.2,6
	s-8.8-2.5-8.8-6.5c0.1-1.9,0.3-3.8,0.8-5.7l2.7-12.7c0.1-0.5,0.2-1.1,0.2-1.7c0-1.2-0.7-1.6-2.7-1.6h-1.6l1.2-5.6H70l-4.6,21.6
	c-0.2,0.8-0.3,1.6-0.3,2.4c0,2.2,1.4,3.4,3.8,3.4c3.8,0,6.2-2.6,7.3-7.9l2.2-10.6c0.1-0.6,0.2-1.1,0.2-1.7c0-1.2-0.7-1.6-2.8-1.6
	h-0.7l1.2-5.6h15.6L87,109.8z"/>
<path class="st0" d="M94.4,113.1h1.8c2.7-0.1,3.3-0.6,3.9-3.3l3.2-15c0.1-0.6,0.2-1.1,0.2-1.7c0-1.2-0.7-1.6-2.8-1.6H99l1.2-5.6
	h16.2l-1,4.6c4.2-4.1,7.2-5.5,12.2-5.5c5,0,7.3,1.5,8.4,5.3c4.2-3.9,7.6-5.4,12.2-5.4c5.1,0,8.4,2.6,8.4,6.6
	c-0.1,1.9-0.3,3.8-0.7,5.6l-2.7,12.7c-0.2,0.6-0.3,1.2-0.3,1.8c0,1.1,0.8,1.5,3.2,1.5h1.5l-1.2,5.6h-20l1.2-5.6
	c2.7-0.1,3.4-0.7,4.1-3.3l2.7-12.7c0.2-0.9,0.4-1.8,0.4-2.7c0.1-1.7-1.3-3.1-3-3.2c-0.1,0-0.3,0-0.4,0c-3.2,0-5.5,2.6-6.5,7.4
	l-2.3,10.8c-0.2,0.7-0.3,1.4-0.4,2.2c0,1.1,0.7,1.5,2.7,1.5l-1.2,5.6h-18l1.2-5.6c2.7-0.1,3.6-0.8,4.1-3.3l2.7-12.7
	c0.2-0.9,0.4-1.8,0.4-2.7c0-2-1.3-3.1-3.4-3.1c-3.2,0-5.5,2.6-6.6,7.6l-2.3,10.9c-0.1,0.6-0.2,1.2-0.3,1.8c0,1.1,0.7,1.5,2.8,1.5
	l-1.2,5.6h-20L94.4,113.1z"/>
<path class="st0" d="M160.1,113.1h1.8c2.7-0.1,3.3-0.6,3.9-3.3l3.2-15c0.1-0.6,0.2-1.1,0.2-1.7c0-1.2-0.7-1.6-2.8-1.6h-1.8l1.2-5.6
	h16.2l-1,4.6c4.2-4.1,7.2-5.5,12.3-5.5c5,0,7.4,1.5,8.4,5.3c4.2-3.9,7.6-5.4,12.2-5.4c5.1,0,8.4,2.6,8.4,6.6
	c-0.1,1.9-0.3,3.8-0.7,5.6l-2.7,12.7c-0.2,0.6-0.3,1.2-0.3,1.8c0,1.1,0.8,1.5,3.2,1.5h1.6l-1.2,5.6h-20l1.2-5.6
	c2.7-0.1,3.4-0.7,4.1-3.3l2.7-12.7c0.2-0.9,0.4-1.8,0.4-2.7c0.1-1.7-1.3-3.1-3-3.2c-0.1,0-0.3,0-0.4,0c-3.2,0-5.5,2.6-6.5,7.4
	l-2.3,10.8c-0.2,0.7-0.3,1.4-0.4,2.2c0,1.1,0.7,1.5,2.7,1.5l-1.2,5.6h-18.1l1.2-5.6c2.7-0.1,3.6-0.8,4.1-3.3l2.7-12.7
	c0.2-0.9,0.4-1.8,0.4-2.7c0-2-1.3-3.1-3.4-3.1c-3.2,0-5.5,2.6-6.6,7.6l-2.3,10.9c-0.1,0.6-0.2,1.2-0.3,1.8c0,1.1,0.7,1.5,2.8,1.5
	l-1.2,5.6h-19.9L160.1,113.1z"/>
<path class="st0" d="M261.9,107.5c-3.9,8.3-10.3,12.3-19.3,12.3s-14.2-4.9-14.2-13.1c0.1-5.4,2-10.5,5.4-14.6
	c3.8-4.7,9.7-7.3,16.2-7.3c8.9,0,14.2,4.8,14.2,12.7c-0.1,2.1-0.4,4.2-0.9,6.2h-22.6c-0.3,1.5-0.5,2.9-0.6,4.4
	c0,3.3,1.9,5.2,5.2,5.2c1.5,0,3-0.3,4.4-1c1.9-0.9,2.7-2,3.9-4.7L261.9,107.5z M252.7,98.1c0.2-1.1,0.3-2.1,0.4-3.2
	c0.1-2.1-1.4-3.9-3.5-4.1c-0.2,0-0.3,0-0.5,0c-1.5,0-2.9,0.5-4.1,1.5c-1.3,1.1-1.9,2.4-2.9,5.8H252.7z"/>
<path class="st0" d="M264.5,113.1h2.1c2.7-0.1,3.3-0.6,3.9-3.3l3.2-15c0.1-0.5,0.2-1.1,0.2-1.6c0-1.3-0.7-1.6-2.8-1.6h-2l1.2-5.7
	h16.4l-0.7,3.3c3.7-3.1,6.1-4.2,9.5-4.2c4,0,6.4,2.2,6.4,5.9c0,4.6-3.4,8.4-7.8,8.4c-2.5,0-4.2-1.5-4.2-3.9c0-2.6,1.4-4.3,4.4-5.2
	c-0.6-0.3-1.2-0.5-1.9-0.6c-3.4,0-6.8,4.1-8.1,9.9l-2.2,10.4c-0.1,0.6-0.2,1.1-0.2,1.7c0,1.2,0.7,1.6,2.7,1.6h2.8l-1.2,5.6h-23
	L264.5,113.1z"/>
<path class="st0" d="M308.3,96.5c-0.5-4.1-1.3-5-4.7-4.9l1.3-5.8h20.7l-1.1,5.8h-1.3c-3.1,0-3.7,0.3-3.7,1.9c0,0.2,0.1,0.9,0.1,1.7
	l1.8,15.7l8.5-15.3c1-1.8,1.3-2.4,1.3-2.9s-0.8-1.1-2.5-1.1h-1.4l1.3-5.8h15.8l-1.3,5.7h-1.3c-2.7,0.1-3.3,0.6-5.6,4.6l-12.8,22.5
	h-12.6L308.3,96.5z"/>
<path class="st0" d="M380.8,109.8c-0.8,3.9-1.8,5.6-3.6,7.3c-2.3,1.9-5.2,2.9-8.2,2.8c-2,0.1-3.9-0.4-5.5-1.5
	c-0.8-0.6-1.3-1.6-1.8-3.4c-4.5,3.7-7.7,5-12.5,5c-5.5,0-8.6-2.7-8.6-7.2c0-3,1.3-5.9,3.5-7.9c2.2-2.1,3.9-2.7,10.7-4.1
	c5.5-1.1,7.6-1.8,8.9-3.1c1.2-1.1,1.9-2.7,1.9-4.3c0-2.6-2.2-4.2-6-4.2c-2-0.1-3.9,0.4-5.6,1.4c2.2,0.2,3.2,1.1,3.4,3.2v0.1
	c0,2.7-3.1,5.1-6.6,5.1c-2.9,0-5-1.7-5-3.9c0-2.7,1.9-5.7,4.6-7.4c3.2-2,7.7-3,13-3c8.1,0,13.3,2.5,13.3,6.6
	c-0.1,1.9-0.4,3.7-0.8,5.5l-2.7,12.7c-0.1,0.6-0.2,1.1-0.1,1.7c-0.1,0.7,0.4,1.4,1.1,1.5c0.1,0,0.2,0,0.2,0c1.2,0,1.9-0.9,2.4-3.1
	l0.6-2.9h4.2L380.8,109.8z M363.4,102.5c-1.7,0.8-3.2,1.5-3.7,1.8l-3.5,1.5c-1.9,0.6-3.2,2.2-3.4,4.2c0,1.8,1.3,3,3.4,3
	c3.1,0,5.4-2,6.1-5.6L363.4,102.5z"/>
<path class="st0" d="M399.5,109.8c-0.2,0.6-0.3,1.3-0.3,1.9c0,1,0.8,1.3,2.7,1.3h1.9l-1.2,5.7h-21.9l1.2-5.7h1.9
	c2.8,0,3.4-0.5,3.9-3.2l6-28.1c0.2-0.8,0.3-1.7,0.4-2.6c0-1.2-0.5-1.5-2.6-1.5h-2l1.2-5.6h16.9L399.5,109.8z"/>
<path class="st0" d="M442.7,107.5c-3.9,8.3-10.3,12.3-19.3,12.3s-14.2-4.9-14.2-13.1c0.1-5.4,2-10.5,5.4-14.6
	c3.8-4.7,9.7-7.3,16.2-7.3c8.9,0,14.2,4.8,14.2,12.7c-0.1,2.1-0.4,4.2-0.9,6.2h-22.6c-0.3,1.5-0.5,2.9-0.6,4.4
	c0,3.3,1.9,5.2,5.2,5.2c1.5,0,3-0.3,4.4-1c1.9-0.9,2.7-2,3.9-4.7L442.7,107.5z M433.5,98.1c0.2-1.1,0.3-2.1,0.4-3.2
	c0.1-2.1-1.4-3.9-3.5-4.1c-0.2,0-0.3,0-0.5,0c-1.5,0-2.9,0.5-4.1,1.5c-1.3,1.1-1.9,2.4-2.9,5.8H433.5z"/>
<path class="st0" d="M42.9,179.8c-0.8,3.9-1.8,5.6-3.6,7.3c-2.3,1.9-5.2,2.9-8.2,2.8c-2,0.1-3.9-0.4-5.5-1.5
	c-0.8-0.6-1.3-1.6-1.8-3.4c-4.5,3.7-7.7,5-12.5,5c-5.5,0-8.6-2.7-8.6-7.2c0-3,1.3-5.9,3.5-7.9c2.2-2.1,3.9-2.7,10.7-4.1
	c5.5-1.1,7.6-1.8,8.9-3.1c1.2-1.1,1.9-2.7,1.9-4.3c0-2.6-2.2-4.2-6-4.2c-2-0.1-3.9,0.4-5.6,1.4c2.2,0.2,3.2,1.1,3.4,3.2v0.1
	c0,2.7-3.2,5.1-6.6,5.1c-2.9,0-5-1.7-5-3.9c0-2.7,1.9-5.7,4.6-7.4c3.2-2,7.7-3,13-3c8.1,0,13.3,2.5,13.3,6.6
	c-0.1,1.9-0.4,3.7-0.8,5.5l-2.7,12.7c-0.1,0.6-0.2,1.1-0.1,1.7c-0.1,0.7,0.3,1.4,1,1.5c0.1,0,0.2,0,0.3,0c1.2,0,1.9-0.9,2.4-3.1
	l0.6-2.9h4.2L42.9,179.8z M25.5,172.5c-1.7,0.8-3.2,1.5-3.7,1.8l-3.5,1.5c-1.9,0.6-3.2,2.2-3.4,4.2c0,1.8,1.3,3,3.4,3
	c3.1,0,5.4-2,6.1-5.6L25.5,172.5z"/>
<path class="st0" d="M44.5,183.1h1.9c2.7-0.1,3.4-0.6,4-3.3l3.2-15c0.1-0.6,0.2-1.1,0.2-1.7c0-1.2-0.7-1.6-2.8-1.6H49l1.2-5.6h16.2
	l-1.1,5.1c4.6-4.5,8-6,13.2-6s8.8,2.5,8.8,6.5c-0.1,1.9-0.3,3.8-0.8,5.7l-2.7,12.7c-0.1,0.5-0.2,1.1-0.2,1.7c0,1.2,0.7,1.6,2.7,1.6
	H88l-1.2,5.6H66.4l1.2-5.6h0.8c2.7-0.1,3.3-0.6,3.9-3.3l2.7-12.7c0.1-0.8,0.2-1.6,0.2-2.4c0-2.2-1.4-3.4-3.8-3.4
	c-3.6,0-6.2,2.7-7.1,7.4l-2.4,11.1c-0.1,0.6-0.2,1.1-0.2,1.7c0,1.2,0.7,1.6,2.8,1.6h0.7l-1.2,5.6H43.2L44.5,183.1z"/>
<path class="st0" d="M118,142h17.1l-8,37.9c-0.1,0.6-0.2,1.1-0.2,1.7c0,1.2,0.7,1.6,2.8,1.6h1.6l-1.2,5.5h-16l1-4.5
	c-4.2,4.4-6.9,5.8-11.5,5.8c-7,0-10.8-3.8-10.8-10.8c0-6.2,2-12.9,5.2-17.4s7.8-7,12.8-7c4,0,6.4,1.3,9,4.8l1.9-8.7
	c0.2-0.6,0.3-1.2,0.3-1.8c0-1-0.9-1.5-2.9-1.5h-2.3L118,142z M107.6,167.1c-1.2,3.7-1.9,7.5-2.2,11.3c0,3.4,1.5,5.4,3.9,5.4
	s4.4-1.7,6-5.2c1.6-4,2.4-8.1,2.6-12.4c0-3.4-1.2-5-3.9-5S108.9,163.5,107.6,167.1z"/>
<path class="st0" d="M200.5,170.6c-1.4,5.2-2.7,8.1-5.2,11.2c-4.4,5.5-11,8.2-19.7,8.2c-7.6,0-12.6-2-16.2-6.3
	c-2.7-3.4-4.1-7.6-4-11.9c0-17.1,13.4-31.2,29.7-31.2c5.8,0,8.4,0.9,13.1,4.6l2.2-3.7h6.4l-4.1,19h-6.8c0.1-1.8,0.2-3.1,0.2-3.9
	c0-5.5-3.7-9.1-9.3-9.1c-4.5,0-8.4,2.4-11.4,7s-5,11.8-5,18.2c0,6.8,3.2,10.5,9,10.5c3.4,0,6.7-1.4,9-3.9c2.3-2.2,3.4-4.1,4.8-8.6
	L200.5,170.6z"/>
<path class="st0" d="M202.3,183.1h2.1c2.7-0.1,3.3-0.6,3.9-3.3l3.2-15c0.1-0.5,0.2-1.1,0.2-1.6c0-1.3-0.7-1.6-2.8-1.6h-2l1.2-5.7
	h16.4l-0.7,3.3c3.7-3.1,6.1-4.2,9.5-4.2c4,0,6.4,2.2,6.4,5.9c0,4.6-3.4,8.4-7.8,8.4c-2.5,0-4.2-1.5-4.2-3.9c0-2.6,1.4-4.3,4.4-5.2
	c-0.6-0.3-1.2-0.5-1.9-0.6c-3.4,0-6.8,4.1-8.1,9.9l-2.2,10.4c-0.1,0.6-0.2,1.1-0.2,1.7c0,1.2,0.7,1.6,2.7,1.6h2.9l-1.2,5.6h-23
	L202.3,183.1z"/>
<path class="st0" d="M278,167.6c0,12.9-9.8,22.3-23.4,22.3c-9.8,0-15.7-4.9-15.7-13c0-12.9,9.8-22.3,23.4-22.3
	C272.1,154.6,278,159.5,278,167.6z M253.5,166.7c-1.4,4-2.2,8.1-2.4,12.3c0,3.4,1.5,5,5,5c3.6,0,6-1.9,7.4-6.1
	c1.3-4,2.2-8.1,2.5-12.2c0-3.4-1.5-5-5-5C257.2,160.6,254.9,162.5,253.5,166.7z"/>
<path class="st0" d="M278.5,189l2.6-12.3h5.5c0.8,3.4,1.8,5,4.3,6.2c1.4,0.6,2.8,1,4.3,0.9c3.6,0,5.8-1.3,5.8-3.6
	c0-1.5-0.5-1.7-8.3-3.9c-7.2-2-9.9-4.3-9.9-8.6c0.2-3.6,1.8-6.9,4.6-9.2c3.1-2.6,7.7-4,13.2-4c4,0,6.1,0.6,10.1,2.7l1.2-1.8h5
	l-2.3,10.5h-5c-1.6-3.1-2.8-4.2-5.3-5c-1.2-0.4-2.5-0.6-3.8-0.6c-2.9,0-4.9,1.5-4.9,3.5c0,1.6,0.8,2.1,6.7,3.6
	c5.4,1.5,6.3,1.8,8.3,3.1c2,1.4,3.3,3.6,3.3,6.1c0,2.9-1.8,6.4-4.4,8.8c-3.1,2.7-8.3,4.4-13.6,4.4c-4,0-6-0.6-11-3.3l-1.5,2.4H278.5
	z"/>
<path class="st0" d="M316.6,189l2.6-12.3h5.5c0.8,3.4,1.8,5,4.3,6.2c1.4,0.6,2.8,1,4.3,0.9c3.6,0,5.8-1.3,5.8-3.6
	c0-1.5-0.5-1.7-8.3-3.9c-7.2-2-9.9-4.3-9.9-8.6c0.2-3.6,1.8-6.9,4.6-9.2c3.1-2.6,7.7-4,13.2-4c4,0,6.1,0.6,10.1,2.7l1.2-1.8h5
	l-2.3,10.5h-5c-1.6-3.1-2.8-4.2-5.3-5c-1.2-0.4-2.5-0.6-3.8-0.6c-2.9,0-4.9,1.5-4.9,3.5c0,1.6,0.8,2.1,6.6,3.6
	c5.4,1.5,6.3,1.8,8.3,3.1c2,1.4,3.3,3.6,3.3,6.1c0,2.9-1.8,6.4-4.4,8.8c-3.1,2.7-8.3,4.4-13.6,4.4c-4,0-6-0.6-11-3.3l-1.5,2.4H316.6
	z"/>
<path class="st0" d="M365.3,188.8h-7.5l8.1-37.8c0.1-0.6,0.2-1.1,0.2-1.7c0-1.3-0.7-1.6-2.8-1.6h-2.1l1.2-5.7h16.8l-3.8,17.6
	c4.1-3.5,7.1-4.8,11.1-4.8c6.4,0,10.3,4.3,10.3,11.6c0,7-2.7,14.6-6.6,18.8c-2.9,3.1-7.1,4.8-11.3,4.8c-4.4,0-6.7-1.3-9.6-5.1
	L365.3,188.8z M374,167.1c-1.2,3.7-1.9,7.5-2.2,11.3c0,3.4,1.5,5.4,3.9,5.4s4.5-1.7,6-5.2c1.6-4,2.4-8.1,2.6-12.4c0-3.4-1.2-5-3.9-5
	S375.3,163.5,374,167.1z"/>
<path class="st0" d="M439.1,179.8c-0.8,3.9-1.8,5.6-3.6,7.3c-2.3,1.9-5.2,2.9-8.2,2.8c-2,0.1-3.9-0.4-5.5-1.5
	c-0.8-0.6-1.3-1.6-1.8-3.4c-4.5,3.7-7.7,5-12.5,5c-5.5,0-8.6-2.7-8.6-7.2c0-3,1.3-5.9,3.5-7.9c2.2-2.1,3.9-2.7,10.7-4.1
	c5.5-1.1,7.6-1.8,8.9-3.1c1.2-1.1,1.9-2.7,1.9-4.3c0-2.6-2.2-4.2-6-4.2c-2-0.1-3.9,0.4-5.6,1.4c2.2,0.2,3.2,1.1,3.4,3.2v0.1
	c0,2.7-3.1,5.1-6.6,5.1c-2.9,0-5-1.7-5-3.9c0-2.7,1.9-5.7,4.6-7.4c3.2-2,7.7-3,13-3c8.1,0,13.3,2.5,13.3,6.6
	c-0.1,1.9-0.4,3.7-0.8,5.5l-2.7,12.7c-0.1,0.6-0.2,1.1-0.1,1.7c-0.1,0.7,0.4,1.4,1.1,1.5c0.1,0,0.2,0,0.2,0c1.2,0,1.9-0.9,2.4-3.1
	l0.6-2.9h4.2L439.1,179.8z M421.6,172.5c-1.7,0.8-3.2,1.5-3.7,1.8l-3.5,1.5c-1.9,0.6-3.2,2.2-3.4,4.2c0,1.8,1.3,3,3.4,3
	c3.1,0,5.4-2,6.1-5.6L421.6,172.5z"/>
<path class="st0" d="M440.5,183.1h1.9c2.7-0.1,3.4-0.6,4-3.3l3.1-15c0.1-0.6,0.2-1.1,0.2-1.7c0-1.2-0.7-1.6-2.8-1.6h-1.9l1.2-5.6
	h16.2l-1.1,5.1c4.5-4.5,8-6,13.2-6s8.8,2.5,8.8,6.5c-0.1,1.9-0.3,3.8-0.8,5.7l-2.7,12.7c-0.1,0.5-0.2,1.1-0.2,1.7
	c0,1.2,0.7,1.6,2.7,1.6h1.6l-1.2,5.6h-20.4l1.2-5.6h0.8c2.7-0.1,3.3-0.6,3.9-3.3l2.7-12.7c0.1-0.8,0.2-1.6,0.2-2.4
	c0-2.2-1.4-3.4-3.9-3.4c-3.6,0-6.2,2.7-7.1,7.4l-2.4,11.1c-0.1,0.6-0.2,1.1-0.2,1.7c0,1.2,0.7,1.6,2.8,1.6h0.7l-1.2,5.6h-20.7
	L440.5,183.1z"/>
<path class="st0" d="M505.8,170.7l11-7.5c0.4-0.2,0.7-0.7,0.8-1.1c0-0.4-0.6-0.6-1.8-0.6c-0.7,0-1.6,0.1-3.2,0.1l1.2-5.8h20.2
	l-1.3,5.8h-1.1c-2.6,0-3.6,0.4-6,2l-5,3.6l5,13.1c0.8,2,1.7,2.6,3.8,2.6c0.4,0,0.8,0,1.2-0.1l-1.3,5.8h-20.3l1.3-5.8
	c2.9,0,3.4-0.1,3.4-1.1c0-0.5-0.2-1-0.3-1.5l-2.4-6.6l-6.7,4.6l-0.3,1.5c-0.2,0.6-0.3,1.2-0.3,1.8c0,1,0.6,1.3,2.2,1.3
	c0.2,0,0.5,0,0.7-0.1l-1.2,5.8h-19.8l1.3-5.8h1.5c2.8,0.1,3.2-0.3,3.9-3.1l6-28c0.2-0.9,0.4-1.9,0.4-2.9c0-0.9-0.8-1.3-2.7-1.3h-1.7
	l1.1-5.6h16.4L505.8,170.7z"/>
</svg>
