<?xml version="1.0" encoding="utf-8"?>
<!-- Generator: Adobe Illustrator 26.0.1, SVG Export Plug-In . SVG Version: 6.00 Build 0)  -->
<svg version="1.1" id="Layer_1" xmlns="http://www.w3.org/2000/svg" xmlns:xlink="http://www.w3.org/1999/xlink" x="0px" y="0px"
	 viewBox="0 0 577 70.3" style="enable-background:new 0 0 577 70.3;" xml:space="preserve">
<style type="text/css">
	.st0{fill:#D3AD31;stroke:#533131;stroke-width:1.5;}
</style>
<path class="st0" d="M66.1,26.7h-9c0.5-2.4,0.8-4.9,0.8-7.4c0.1-2.6-0.9-5-2.6-6.9c-1.8-1.9-4.1-2.5-8.8-2.6l-8.7,41.1
	c-1,4.5-1,4.5-1,5.5c0,2.1,1.7,2.5,9.8,2.7l-1.8,8.5H5.2l1.9-8.5c3,0,6-0.2,8.9-0.8c1.8-0.6,2.1-1.2,3.3-7.3l8.8-41.2
	c-9.9-0.1-15,4.7-17.8,16.9h-9L6.8,0.9h64.8L66.1,26.7z"/>
<path class="st0" d="M63.2,59.5h2.5c3.9-0.1,4.7-0.8,5.6-4.7l8.8-41.2c0.2-0.8,0.3-1.6,0.3-2.4c0-1.8-1-2.3-4-2.3h-2.4l1.7-8.1h22.9
	l-5.6,26.5c7.1-6,11.7-8,18.8-8c7.7,0,12.5,3.6,12.5,9.3c-0.2,2.7-0.5,5.4-1.1,8.1l-3.9,18.1c-0.2,0.8-0.3,1.6-0.3,2.4
	c0,1.7,1,2.3,4,2.3h2.3l-1.7,8H94.4l1.7-8h1.1c3.9-0.1,4.8-0.8,5.7-4.7l3.8-18.1c0.3-1.1,0.4-2.3,0.4-3.5c0-3.1-2-4.9-5.5-4.9
	c-5.5,0-8.8,3.7-10.6,12.2l-3,14.3c-0.2,0.8-0.3,1.6-0.3,2.4c0,1.7,1,2.3,3.9,2.3h1.1l-1.7,8H61.6L63.2,59.5z"/>
<path class="st0" d="M180.2,51.7c-5.6,11.8-14.7,17.6-27.6,17.6s-20.3-7-20.3-18.7c0.1-7.6,2.8-15,7.7-20.9
	c5.4-6.7,13.8-10.4,23.2-10.4c12.7,0,20.3,6.8,20.3,18.1c-0.1,3-0.5,5.9-1.3,8.8h-32.3c-0.4,2.1-0.7,4.2-0.8,6.3
	c0,4.7,2.7,7.4,7.5,7.4c2.2,0,4.4-0.5,6.3-1.5c2.7-1.3,3.9-2.9,5.5-6.7L180.2,51.7z M167.1,38.1c0.3-1.5,0.4-3.1,0.5-4.6
	c0.2-3-2-5.6-5-5.8c-0.2,0-0.4,0-0.7,0c-2.1,0-4.2,0.8-5.9,2.1c-1.8,1.5-2.7,3.4-4.2,8.3H167.1z"/>
<path class="st0" d="M280.7,26.7h-9c0.5-2.4,0.8-4.9,0.8-7.4c0.1-2.6-0.9-5-2.6-6.9c-1.8-1.9-4.1-2.5-8.8-2.6l-8.7,41.1
	c-1,4.5-1,4.5-1,5.5c0,2.1,1.7,2.5,9.8,2.7l-1.8,8.5h-39.6l1.9-8.5c3,0,6-0.2,8.9-0.8c1.8-0.6,2.1-1.2,3.3-7.3l8.8-41.2
	c-9.9-0.1-15,4.7-17.8,16.9h-9l5.5-25.8h64.8L280.7,26.7z"/>
<path class="st0" d="M333.6,37.4c0,18.5-14,31.8-33.4,31.8c-14,0-22.4-7-22.4-18.5c0-18.5,14-31.8,33.4-31.8
	C325.2,18.9,333.6,25.8,333.6,37.4z M298.6,36.1c-2,5.7-3.5,13.5-3.5,17.5c0,4.9,2.2,7.1,7.1,7.1c5.2,0,8.6-2.7,10.6-8.7
	c1.9-5.6,3.5-13.5,3.5-17.5c0-4.9-2.2-7.1-7.1-7.1C303.9,27.4,300.6,30.1,298.6,36.1z"/>
<path class="st0" d="M344.1,36.7c-0.3-6.6-1.2-7.7-6.7-8.1l1.7-7.9h27.5l-1.6,7.8h-2c-2.8,0-3.7,1.1-3.7,4.5c0,0.8,0,1.5,0.1,2.3
	l1.4,21l10.8-20.5c1.7-3.4,2.4-5.1,2.4-5.9c0-1.1-0.7-1.4-3-1.4h-1.9l1.7-7.8H398l-1.7,7.9h-1.8c-3.1,0-4.3,1-4.3,3.5l0.1,2.6
	l1.8,21.7l11.5-22.5c1.3-2.4,1.6-3.3,1.6-4.1s-0.8-1.3-2.6-1.3c-0.7,0-1.3,0-2,0.1l1.7-7.9h21.1l-1.6,7.9c-5.6,0.2-7.3,1.3-9.7,6.3
	l-16.8,32.7h-17l-2.2-23.8l-12.4,23.8h-17.6L344.1,36.7z"/>
<path class="st0" d="M467.1,51.7c-5.6,11.8-14.7,17.6-27.6,17.6s-20.3-7-20.3-18.7c0.1-7.6,2.8-15,7.7-20.9
	c5.4-6.7,13.8-10.4,23.2-10.4c12.7,0,20.3,6.8,20.3,18.1c-0.1,3-0.5,5.9-1.3,8.8h-32.3c-0.4,2.1-0.7,4.2-0.8,6.3
	c0,4.7,2.7,7.4,7.5,7.4c2.2,0,4.4-0.5,6.3-1.5c2.7-1.3,3.9-2.9,5.5-6.7L467.1,51.7z M453.9,38.1c0.3-1.5,0.4-3.1,0.5-4.6
	c0.2-3-2-5.6-5-5.8c-0.2,0-0.4,0-0.7,0c-2.1,0-4.2,0.8-5.9,2.1c-1.8,1.5-2.7,3.4-4.2,8.3H453.9z"/>
<path class="st0" d="M470.6,59.5h3c3.9-0.1,4.7-0.8,5.6-4.7l4.6-21.5c0.2-0.8,0.3-1.5,0.3-2.3c0-1.8-1-2.3-4-2.3h-2.9l1.7-8.1h23.4
	l-1,4.7c5.3-4.5,8.7-6,13.5-6c5.7,0,9.1,3.1,9.1,8.4c0,6.6-4.9,12-11.1,12c-3.6,0-6-2.2-6-5.6c0-3.7,2-6.1,6.3-7.5
	c-0.8-0.5-1.7-0.8-2.7-0.8c-4.9,0-9.7,5.9-11.5,14.1l-3.1,14.9c-0.2,0.8-0.3,1.6-0.3,2.4c0,1.7,1,2.3,3.9,2.3h4.1l-1.7,8h-32.9
	L470.6,59.5z"/>
<path class="st0" d="M520.3,68l3.7-17.5h7.9c1.1,4.9,2.6,7.1,6.2,8.8c1.9,0.9,4.1,1.4,6.2,1.3c5.1,0,8.2-1.9,8.2-5.1
	c0-2.1-0.7-2.4-11.9-5.5c-10.3-2.8-14.1-6.1-14.1-12.3c0-4.6,2.5-9.6,6.6-13.1c4.4-3.7,11-5.7,18.9-5.7c5.7,0,8.7,0.8,14.5,3.9
	l1.7-2.6h7.1l-3.2,14.9h-7.1c-2.3-4.4-4-6-7.6-7.2c-1.7-0.6-3.6-0.9-5.4-0.9c-4.1,0-7,2.1-7,5c0,2.3,1.2,3,9.5,5.2
	c7.7,2.1,9,2.6,11.8,4.5c2.9,1.9,4.7,5.2,4.7,8.7c0,4.2-2.5,9.1-6.3,12.5c-4.4,3.9-11.8,6.3-19.4,6.3c-5.7,0-8.6-0.9-15.7-4.7
	l-2.2,3.5L520.3,68z"/>
</svg>
