<svg id="Layer_1" data-name="Layer 1" xmlns="http://www.w3.org/2000/svg" viewBox="0 0 395 395"><defs><style>.cls-1{fill:#533131;}.cls-2{fill:#d3ad31;stroke:#fff;stroke-width:2px;}</style></defs><circle class="cls-1" cx="197.5" cy="197.5" r="197.5"/><path class="cls-2" d="M52,222.32h4.4c7.4-.4,7.6-.6,9-7.6l5.9-28H59.45l1.8-8.1c9.7-.4,14.5-2.7,18.3-8.5h12.7l-9.6,45.1a25.28,25.28,0,0,0-.6,4.2c0,2.4,1.2,2.9,6.4,2.9h3.9l-1.7,8.3H50.15Z"/><path class="cls-2" d="M133.25,207.52a23.49,23.49,0,0,1-12-3c-4.1-2.4-6-6-6-11.2a21.81,21.81,0,0,1,7.3-16.7c5.8-5.2,14.1-8.2,22.8-8.2,14.6,0,23,7.9,23,21.6,0,10.1-4.1,21.2-10.8,29.5-7,8.6-16.1,12.8-27.8,12.8s-18.5-4.2-18.5-11.1c0-5.8,5.1-10.5,11.4-10.5,4.6,0,7.2,2.2,7.2,6,0,3.2-1.5,5.3-5.1,7.1a15.18,15.18,0,0,0,4.7,1,17.33,17.33,0,0,0,12.9-6.5c2.4-3.1,3.6-6.2,5.9-15.2C142.15,206.42,138.55,207.52,133.25,207.52Zm.4-15.5c0,4.5,2.2,7.1,6.2,7.1,6,0,11.2-7,11.2-15.1,0-5-2.2-7.6-6.3-7.6C138.25,176.42,133.65,182.92,133.65,192Z"/><path class="cls-2" d="M180.85,189.82c0-6.5,4.3-13.3,11.2-17.3,4.6-2.7,10.9-4.2,18-4.2,13.8,0,21.9,4.6,21.9,12.5a12.36,12.36,0,0,1-2.8,7.7c-2.2,2.7-4.5,4.2-10.2,6.6,7.5,3.3,10.4,6.9,10.4,13.1,0,7.4-3.8,13.9-10.7,18.3-6.4,4.1-13.3,5.8-23.1,5.8-15.3,0-23.2-4.8-23.2-14.3,0-8,5.3-14.1,15.2-17.3C182.65,197.42,180.85,194.42,180.85,189.82Zm4,26.6c0,5.1,4.6,8.1,12.4,8.1a23.59,23.59,0,0,0,9.6-1.7c2.9-1.4,5.2-4.6,5.2-7.3,0-3-4.5-5.6-17.8-10.4C187.45,208.42,184.85,211.62,184.85,216.42Zm34.5-34.1c0-3.8-3.7-6-10.2-6-6.9,0-11.7,2.9-11.7,7.1,0,1.9,1,3.3,3.4,4.4.2.1,3.9,1.4,11,3.8C217.15,188.92,219.35,186.12,219.35,182.32Z"/><path class="cls-2" d="M296.65,190.82c0,23-16.4,41.5-36.7,41.5-13.8,0-23.1-9-23.1-22.3,0-10.2,3.8-21.2,9.6-28.3,7.1-8.5,16.9-13.3,27.1-13.3C287.35,168.42,296.65,177.42,296.65,190.82Zm-37-2.1c-2.9,8.2-5,18.6-5,25.5,0,6.5,2.3,9.4,7.4,9.4s9.1-3.9,11.9-11.6c2.9-8.2,5-18.7,5-25.4s-2.3-9.5-7.4-9.5S262.45,180.92,259.65,188.72Z"/><path class="cls-2" d="M295.65,231.12l3.7-17.5h7.9c1.1,4.9,2.6,7.1,6.2,8.8a13.48,13.48,0,0,0,6.2,1.3c5.1,0,8.2-1.9,8.2-5.1,0-2.1-.7-2.4-11.9-5.5-10.3-2.8-14.1-6.1-14.1-12.3,0-4.6,2.5-9.6,6.6-13.1,4.4-3.7,11-5.7,18.9-5.7,5.7,0,8.7.8,14.5,3.9l1.7-2.6h7.1l-3.2,14.9h-7.1c-2.3-4.4-4-6-7.6-7.2a17,17,0,0,0-5.4-.9c-4.1,0-7,2.1-7,5,0,2.3,1.2,3,9.5,5.2,7.7,2.1,9,2.6,11.8,4.5a10.48,10.48,0,0,1,4.7,8.7c0,4.2-2.5,9.1-6.3,12.5-4.4,3.9-11.8,6.3-19.4,6.3-5.7,0-8.6-.9-15.7-4.7l-2.2,3.5Z"/></svg>