<svg id="Layer_1" data-name="Layer 1" xmlns="http://www.w3.org/2000/svg" viewBox="0 0 226.91 226.6"><defs><style>.cls-1{fill:#d3ad31;}.cls-2{fill:#fff;stroke:#533131;stroke-width:2px;}</style></defs><circle class="cls-1" cx="113.3" cy="113.3" r="113.3"/><path class="cls-2" d="M39.9,130.93h2.7c7.5-.3,7.9-.7,8.9-6.1l.9-4H23.5l2-9.5L63.3,78.72h15l-7.1,33.41h9.6l-1.9,8.7H69.4l-1.3,6a13.55,13.55,0,0,0-.2,2c0,1.5,1.8,2.1,6.3,2.1h2.6l-1.8,8.3H38.2Zm14.3-18.8,4.3-19.5-23.2,19.5Z"/><path class="cls-2" d="M146.7,99.43c0,23-16.4,41.5-36.7,41.5-13.8,0-23.1-9-23.1-22.3,0-10.2,3.8-21.21,9.6-28.3C103.6,81.82,113.4,77,123.6,77,137.4,77,146.7,86,146.7,99.43Zm-37-2.1c-2.9,8.2-5,18.6-5,25.5,0,6.5,2.3,9.4,7.4,9.4s9.1-3.9,11.9-11.6c2.9-8.2,5-18.7,5-25.41s-2.3-9.5-7.4-9.5S112.5,89.52,109.7,97.33Z"/><path class="cls-2" d="M145.7,139.73l3.7-17.5h7.9c1.1,4.9,2.6,7.1,6.2,8.8a13.48,13.48,0,0,0,6.2,1.3c5.1,0,8.2-1.9,8.2-5.1,0-2.1-.7-2.4-11.9-5.5-10.3-2.8-14.1-6.1-14.1-12.3,0-4.6,2.5-9.6,6.6-13.1,4.4-3.7,11-5.7,18.9-5.7,5.7,0,8.7.79,14.5,3.9l1.7-2.61h7.1l-3.2,14.91h-7.1c-2.3-4.4-4-6-7.6-7.2a17,17,0,0,0-5.4-.9c-4.1,0-7,2.1-7,5,0,2.3,1.2,3,9.5,5.2,7.7,2.1,9,2.6,11.8,4.5a10.48,10.48,0,0,1,4.7,8.7c0,4.2-2.5,9.1-6.3,12.5-4.4,3.9-11.8,6.3-19.4,6.3-5.7,0-8.6-.9-15.7-4.7l-2.2,3.5Z"/></svg>