<?xml version="1.0" encoding="utf-8"?>
<!-- Generator: Adobe Illustrator 26.0.1, SVG Export Plug-In . SVG Version: 6.00 Build 0)  -->
<svg version="1.1" id="Layer_1" xmlns="http://www.w3.org/2000/svg" xmlns:xlink="http://www.w3.org/1999/xlink" x="0px" y="0px"
	 viewBox="0 0 877.7 121.4" style="enable-background:new 0 0 877.7 121.4;" xml:space="preserve">
<style type="text/css">
	.st0{fill:#FFFFFF;stroke:#533131;stroke-width:1.5;}
</style>
<path class="st0" d="M3,43h1.6c3.6-0.2,4.3-0.7,6.4-4.6l19.7-36h13.9l3.8,36.3c0.4,3.5,1,4.2,3.9,4.3h2.3L53.3,49H27.5l1.3-6.1h2
	c3.6,0,4.7-0.6,4.6-2.3c0-0.3,0-0.6-0.1-0.8l-0.6-5.7H21.3l-2.9,5.3c-0.5,0.7-0.8,1.6-0.8,2.4c0,0.8,1,1.1,3.4,1.1h2.4l-1.3,6.1H1.7
	L3,43z M32.5,13.2L24.6,28h9.5L32.5,13.2z"/>
<path class="st0" d="M72.5,43.5h1.8c2.7-0.1,3.3-0.6,3.9-3.3l6.2-28.8c0.1-0.6,0.2-1.1,0.2-1.7c0-1.3-0.7-1.6-2.8-1.6h-1.7l1.2-5.7
	h16l-3.9,18.5c5-4.2,8.2-5.6,13.2-5.6c5.4,0,8.8,2.5,8.8,6.5c-0.1,1.9-0.4,3.8-0.8,5.7l-2.7,12.7c-0.1,0.6-0.2,1.1-0.2,1.7
	c0,1.2,0.7,1.6,2.8,1.6h1.6l-1.2,5.6H94.3l1.2-5.6h0.8c2.7-0.1,3.4-0.6,4-3.3l2.7-12.7c0.2-0.8,0.3-1.6,0.3-2.4
	c0-2.2-1.4-3.4-3.9-3.4c-3.8,0-6.2,2.6-7.4,8.5l-2.1,10c-0.1,0.5-0.2,1.1-0.2,1.7c0,1.2,0.7,1.6,2.7,1.6h0.8L91.9,49H71.3L72.5,43.5
	z"/>
<path class="st0" d="M124.5,16.2h17l-5,23.9c-0.1,0.6-0.2,1.2-0.2,1.8c0,1.1,0.6,1.5,2.6,1.5h1.8l-1.2,5.6h-22l1.2-5.6h2.1
	c2.7-0.1,3.4-0.6,3.9-3.3l3-14.1c0.2-0.9,0.4-1.9,0.4-2.8c0-0.9-0.8-1.3-2.7-1.3h-2.2L124.5,16.2z M142.8,6.6
	c-0.2,3.8-3.4,6.9-7.2,7c-2.5,0.1-4.6-1.7-4.7-4.2c0-0.1,0-0.2,0-0.3c0.2-3.9,3.4-7,7.3-7.1c2.5-0.1,4.5,1.9,4.6,4.4
	C142.8,6.4,142.8,6.5,142.8,6.6z"/>
<path class="st0" d="M143.5,49.4l2.6-12.2h5.5c0.8,3.4,1.8,5,4.3,6.2c1.4,0.6,2.8,1,4.4,0.9c3.6,0,5.7-1.3,5.7-3.6
	c0-1.5-0.5-1.7-8.3-3.8c-7.2-2-9.9-4.3-9.9-8.6c0.2-3.6,1.8-6.9,4.6-9.2c3.1-2.6,7.7-4,13.2-4c4,0,6.1,0.6,10.1,2.7l1.2-1.8h5
	l-2.3,10.4h-5c-1.6-3.1-2.8-4.2-5.3-5c-1.2-0.4-2.5-0.6-3.8-0.6c-2.9,0-4.9,1.5-4.9,3.5c0,1.6,0.8,2.1,6.6,3.6
	c5.4,1.5,6.3,1.8,8.3,3.2c2,1.4,3.3,3.6,3.3,6.1c0,2.9-1.8,6.4-4.4,8.8c-3.1,2.7-8.3,4.4-13.6,4.4c-4,0-6-0.6-11-3.3l-1.5,2.4
	L143.5,49.4z"/>
<path class="st0" d="M185.6,21.9l1.1-5.2c5.7-0.8,9.5-5,12-13.2h6.9l-2.7,12.8h8.4l-1.3,5.7h-8.4L198,39.1c-0.2,0.9-0.4,1.8-0.4,2.7
	c-0.1,1,0.6,2,1.6,2.1c0.2,0,0.3,0,0.5,0c2.2,0,3.2-1.7,4.4-7.3l0.6-3.1h5.6l-1.1,4.9c-1.2,5.5-2.7,8-6.2,10.2
	c-2.5,1.3-5.3,1.9-8.1,1.9c-5.5,0-8.9-2.7-8.9-7.3c0.1-2,0.4-3.9,0.9-5.8l3.3-15.5L185.6,21.9z"/>
<path class="st0" d="M253.2,28c0,13-9.8,22.3-23.4,22.3c-9.8,0-15.7-4.9-15.7-13c0-13,9.8-22.3,23.4-22.3
	C247.4,15,253.2,19.9,253.2,28z M228.7,27.1c-1.4,4-2.2,8.1-2.5,12.3c0,3.4,1.5,5,5,5c3.6,0,6-1.9,7.4-6.1c1.3-4,2.1-8.1,2.4-12.3
	c0-3.4-1.5-5-5-5C232.5,21,230.1,22.9,228.7,27.1z"/>
<path class="st0" d="M253.4,43.5h2.1c2.7-0.1,3.3-0.6,3.9-3.3l3.2-15c0.1-0.5,0.2-1.1,0.2-1.6c0-1.3-0.7-1.6-2.8-1.6h-2l1.2-5.7
	h16.4l-0.7,3.3c3.7-3.2,6.1-4.2,9.5-4.2c4,0,6.4,2.2,6.4,5.9c0,4.6-3.4,8.4-7.8,8.4c-2.5,0-4.2-1.5-4.2-3.9c0-2.6,1.4-4.3,4.4-5.2
	c-0.6-0.3-1.2-0.5-1.9-0.6c-3.4,0-6.8,4.1-8.1,9.9l-2.2,10.4c-0.1,0.6-0.2,1.1-0.2,1.7c0,1.2,0.7,1.6,2.7,1.6h2.9l-1.2,5.6h-23
	L253.4,43.5z"/>
<path class="st0" d="M298,25.9c-0.5-2.9-1-3.7-3-3.8h-1.9l1.2-5.8h21.1l-1.3,5.8h-1.6c-2.3,0-3.1,0.4-3.1,1.6c0.1,0.7,0.2,1.3,0.4,2
	l2.6,11.8l6.9-11.3c1.3-2.2,1.6-2.7,1.6-3.2s-0.6-0.8-2.3-0.8h-1.5l1.3-5.8h15.4l-1.2,5.8c-3.9,0.3-4.3,0.6-6.6,4.1l-16,25.7
	c-5.6,9-9.9,12.3-16,12.3c-5.1,0-8.3-2.7-8.3-7.1c-0.2-4.5,3.3-8.3,7.8-8.5c0.1,0,0.1,0,0.2,0c2.7,0,4.5,1.4,4.5,3.7
	c0,3.2-2.5,5.8-5.6,5.8c0,0,0,0,0,0h-1.4c1,1.2,1.8,1.6,2.7,1.6c2-0.2,3.9-1,5.3-2.5c1.6-1.4,2.6-2.7,4.4-5.9L298,25.9z"/>
<path class="st0" d="M388.6,28c0,13-9.8,22.3-23.4,22.3c-9.8,0-15.7-4.9-15.7-13c0-13,9.8-22.3,23.4-22.3
	C382.7,15,388.6,19.9,388.6,28z M364.1,27.1c-1.4,4-2.2,8.1-2.5,12.3c0,3.4,1.5,5,5,5c3.6,0,6-1.9,7.4-6.1c1.3-4,2.2-8.1,2.5-12.3
	c0-3.4-1.5-5-5-5C367.8,21,365.5,22.9,364.1,27.1z"/>
<path class="st0" d="M389.2,43.1c0.9,0.1,1.4,0.1,1.7,0.1c3.1,0,3.6-0.5,4.5-4.9l3.5-16.2h-5.2l1.3-5.8h5.1l0.4-1.9
	c1.3-6.2,2.8-8.6,6.6-10.8c2.9-1.6,6.2-2.5,9.5-2.5c6.1,0,9.9,2.5,9.9,6.4c0.1,3.5-2.7,6.4-6.2,6.5c-2.3,0-3.9-1.4-3.9-3.4
	s1-3.3,3.4-4.5c-0.7-0.2-1.5-0.3-2.2-0.3c-1.5,0-2.9,0.8-3.7,2.1c-0.6,1.2-1,2.6-1.2,3.9l-0.9,4.4h6l-1.3,5.8h-6L407,38.2
	c-0.3,1.1-0.4,2.3-0.5,3.5c0,1.3,0.6,1.5,3.4,1.5c0.4,0,1.1,0,2-0.1l-1.3,6H388L389.2,43.1z"/>
<path class="st0" d="M433,49.7l3.9-18.3h6.2v0.8c0,4,0.7,5.9,2.9,8c2.4,2.4,5.6,3.6,9,3.4c5.7,0,9.8-2.7,9.8-6.6
	c0-2.7-1.6-3.8-7.1-5c-4.5-0.9-8.9-2.2-13.2-4c-3.3-1.7-5.4-5.1-5.4-8.8c0.1-5.1,2.5-9.9,6.4-13.1c4.1-3.2,9.6-4.8,16.1-4.8
	c6,0,9.2,0.9,13.1,3.9l2.1-3.3h5.8L479,19h-6.4c0-0.2,0-0.4,0.1-0.6v-0.6c0.4-6-4.3-9.9-11.6-9.9c-5,0-8.7,2.7-8.7,6.4
	c0,2,1.5,3.1,5.5,3.9c8.2,1.8,11.9,2.9,14.9,4.4c3.6,1.8,5.8,5.5,5.7,9.4c-0.2,4.9-2.3,9.4-6,12.6c-2.4,2.2-5.4,3.8-8.6,4.5
	c-2.8,0.7-5.6,1.1-8.5,1.2c-3.1-0.1-6.1-0.6-9-1.5c-1.9-0.5-3.6-1.4-5-2.7l-2.7,3.5H433z"/>
<path class="st0" d="M518,40.2c-0.1,0.6-0.2,1.1-0.2,1.7c0,1.2,0.7,1.6,2.8,1.6h1.8l-1.2,5.6H505l1.1-5.1c-4.5,4.4-8,6-13.2,6
	s-8.8-2.5-8.8-6.5c0.1-1.9,0.3-3.8,0.8-5.7l2.7-12.7c0.1-0.5,0.2-1.1,0.2-1.7c0-1.2-0.7-1.6-2.7-1.6h-1.6l1.2-5.6h16.5l-4.6,21.6
	c-0.2,0.8-0.3,1.6-0.3,2.4c0,2.2,1.4,3.4,3.8,3.4c3.8,0,6.2-2.6,7.3-7.9l2.2-10.6c0.1-0.6,0.2-1.1,0.2-1.7c0-1.2-0.7-1.6-2.8-1.6
	h-0.7l1.2-5.6h15.6L518,40.2z"/>
<path class="st0" d="M525.5,43.5h1.8c2.7-0.1,3.3-0.6,3.9-3.3l3.2-15c0.1-0.6,0.2-1.1,0.2-1.7c0-1.2-0.7-1.6-2.8-1.6h-1.7l1.2-5.6
	h16.2l-1,4.6c4.2-4.1,7.2-5.5,12.2-5.5s7.4,1.5,8.4,5.3c4.2-3.9,7.6-5.4,12.2-5.4c5.1,0,8.4,2.6,8.4,6.7c-0.1,1.9-0.3,3.8-0.7,5.6
	l-2.7,12.7c-0.2,0.6-0.3,1.2-0.3,1.8c0,1.1,0.8,1.5,3.2,1.5h1.5l-1.2,5.6h-20l1.2-5.6c2.7-0.1,3.4-0.7,4.1-3.3l2.7-12.7
	c0.2-0.9,0.4-1.8,0.4-2.7c0.1-1.7-1.3-3.1-3-3.2c-0.1,0-0.3,0-0.4,0c-3.2,0-5.5,2.6-6.5,7.3l-2.3,10.8c-0.2,0.7-0.3,1.4-0.3,2.2
	c0,1,0.7,1.5,2.7,1.5l-1.2,5.6h-18.1l1.2-5.6c2.7-0.1,3.6-0.8,4.1-3.3l2.7-12.7c0.2-0.9,0.4-1.8,0.4-2.7c0-2-1.3-3.2-3.4-3.2
	c-3.2,0-5.5,2.6-6.6,7.6l-2.3,10.9c-0.1,0.6-0.2,1.2-0.3,1.8c0,1.1,0.7,1.5,2.8,1.5l-1.2,5.6h-20L525.5,43.5z"/>
<path class="st0" d="M591.2,43.5h1.8c2.7-0.1,3.3-0.6,3.9-3.3l3.2-15c0.1-0.6,0.2-1.1,0.2-1.7c0-1.2-0.7-1.6-2.8-1.6h-1.8l1.2-5.6
	h16.2l-1,4.6c4.2-4.1,7.2-5.5,12.2-5.5s7.3,1.5,8.4,5.3c4.2-3.9,7.6-5.4,12.2-5.4c5.1,0,8.4,2.6,8.4,6.7c-0.1,1.9-0.3,3.8-0.7,5.6
	L650,40.2c-0.2,0.6-0.3,1.2-0.3,1.8c0,1.1,0.8,1.5,3.2,1.5h1.5l-1.2,5.6h-20l1.2-5.6c2.7-0.1,3.4-0.7,4.1-3.3l2.7-12.7
	c0.2-0.9,0.4-1.8,0.4-2.7c0.1-1.7-1.3-3.1-3-3.2c-0.1,0-0.3,0-0.4,0c-3.2,0-5.5,2.6-6.5,7.3l-2.3,10.7c-0.2,0.7-0.3,1.4-0.3,2.2
	c0,1,0.7,1.5,2.7,1.5l-1.2,5.6h-18.1l1.2-5.6c2.7-0.1,3.6-0.8,4.1-3.3l2.7-12.7c0.2-0.9,0.4-1.8,0.4-2.7c0-2-1.3-3.2-3.4-3.2
	c-3.2,0-5.5,2.6-6.6,7.6l-2.3,10.9c-0.1,0.6-0.2,1.2-0.3,1.8c0,1.1,0.7,1.5,2.8,1.5l-1.2,5.6h-20L591.2,43.5z"/>
<path class="st0" d="M693,37.9c-3.9,8.3-10.3,12.3-19.3,12.3s-14.2-4.9-14.2-13.1c0.1-5.4,2-10.5,5.4-14.6c3.8-4.7,9.7-7.3,16.2-7.3
	c8.9,0,14.2,4.8,14.2,12.7c-0.1,2.1-0.4,4.2-0.9,6.2h-22.6c-0.3,1.5-0.5,2.9-0.6,4.4c0,3.3,1.9,5.2,5.2,5.2c1.5,0,3-0.3,4.4-1
	c1.9-0.9,2.7-2,3.8-4.7L693,37.9z M683.8,28.5c0.2-1.1,0.3-2.1,0.3-3.2c0.1-2.1-1.4-3.9-3.5-4.1c-0.2,0-0.3,0-0.5,0
	c-1.5,0-2.9,0.6-4.1,1.5c-1.3,1-1.9,2.4-2.9,5.8L683.8,28.5z"/>
<path class="st0" d="M695.5,43.5h2.1c2.7-0.1,3.3-0.6,3.9-3.3l3.2-15c0.1-0.5,0.2-1.1,0.2-1.6c0-1.3-0.7-1.6-2.8-1.6h-2l1.2-5.7
	h16.4l-0.7,3.3c3.7-3.2,6.1-4.2,9.5-4.2c4,0,6.4,2.2,6.4,5.9c0,4.6-3.4,8.4-7.8,8.4c-2.5,0-4.2-1.5-4.2-3.9c0-2.6,1.4-4.3,4.4-5.2
	c-0.6-0.3-1.2-0.5-1.9-0.6c-3.4,0-6.8,4.1-8,9.9l-2.3,10.4c-0.1,0.6-0.2,1.1-0.2,1.7c0,1.2,0.7,1.6,2.7,1.6h2.9l-1.2,5.6h-23
	L695.5,43.5z"/>
<path class="st0" d="M739.4,26.9c-0.5-4.1-1.3-5-4.7-4.9l1.3-5.8h20.7l-1.2,5.8h-1.3c-3.2,0-3.7,0.3-3.7,1.9c0,0.2,0.1,0.9,0.1,1.7
	l1.8,15.7l8.5-15.3c1-1.8,1.3-2.4,1.3-2.9s-0.8-1.1-2.5-1.1h-1.4l1.3-5.8h15.8l-1.2,5.7h-1.3c-2.7,0.1-3.3,0.6-5.6,4.6l-12.7,22.5
	h-12.6L739.4,26.9z"/>
<path class="st0" d="M811.9,40.2c-0.8,3.8-1.8,5.6-3.6,7.3c-2.3,1.9-5.2,2.9-8.2,2.8c-2,0.1-3.9-0.4-5.5-1.5
	c-0.8-0.6-1.3-1.6-1.8-3.4c-4.5,3.7-7.7,5-12.5,5c-5.5,0-8.6-2.7-8.6-7.2c0-3,1.3-5.9,3.5-7.9c2.2-2.1,3.9-2.7,10.7-4.1
	c5.5-1.1,7.6-1.8,8.9-3.1c1.2-1.1,1.9-2.7,1.9-4.3c0-2.6-2.2-4.2-6-4.2c-2-0.1-3.9,0.4-5.6,1.4c2.2,0.2,3.2,1.1,3.4,3.2v0.1
	c0,2.7-3.2,5.1-6.6,5.1c-2.9,0-5-1.7-5-3.9c0-2.7,1.9-5.7,4.6-7.3c3.2-2,7.7-3,13-3c8.1,0,13.3,2.5,13.3,6.6
	c-0.1,1.9-0.4,3.7-0.8,5.5l-2.7,12.7c-0.1,0.6-0.2,1.1-0.1,1.7c-0.1,0.7,0.4,1.4,1.1,1.5c0.1,0,0.2,0,0.2,0c1.2,0,1.9-0.9,2.4-3.2
	l0.6-2.9h4.2L811.9,40.2z M794.5,32.9c-1.7,0.8-3.2,1.5-3.7,1.8l-3.5,1.5c-1.9,0.6-3.2,2.2-3.4,4.2c0,1.8,1.3,3,3.4,3
	c3.1,0,5.4-2,6.1-5.6L794.5,32.9z"/>
<path class="st0" d="M830.6,40.2c-0.2,0.6-0.3,1.3-0.3,1.9c0,1,0.8,1.3,2.7,1.3h1.9l-1.2,5.7h-21.9l1.2-5.7h1.9
	c2.8,0,3.4-0.5,3.9-3.2l6-28.1c0.2-0.8,0.3-1.7,0.3-2.6c0-1.2-0.5-1.5-2.6-1.5h-2l1.2-5.6h16.9L830.6,40.2z"/>
<path class="st0" d="M873.8,37.9c-3.9,8.3-10.3,12.3-19.3,12.3s-14.2-4.9-14.2-13.1c0.1-5.4,2-10.5,5.4-14.6
	c3.8-4.7,9.7-7.3,16.2-7.3c8.9,0,14.2,4.8,14.2,12.7c-0.1,2.1-0.4,4.2-0.9,6.2h-22.6c-0.3,1.5-0.5,2.9-0.6,4.4
	c0,3.3,1.9,5.2,5.2,5.2c1.5,0,3-0.3,4.4-1c1.9-0.9,2.7-2,3.8-4.7L873.8,37.9z M864.6,28.5c0.2-1.1,0.3-2.1,0.3-3.2
	c0.1-2.1-1.4-3.9-3.5-4.1c-0.2,0-0.3,0-0.5,0c-1.5,0-2.9,0.6-4.1,1.5c-1.3,1-1.9,2.4-2.9,5.8L864.6,28.5z"/>
<path class="st0" d="M42,110.2c-0.8,3.9-1.8,5.6-3.6,7.3c-2.3,1.9-5.2,2.9-8.2,2.8c-2,0.1-3.9-0.5-5.5-1.6c-0.8-0.6-1.3-1.6-1.8-3.4
	c-4.5,3.7-7.7,5-12.5,5c-5.5,0-8.6-2.7-8.6-7.2c0-3,1.3-5.9,3.5-7.9c2.2-2.1,3.9-2.7,10.7-4.1c5.5-1.1,7.6-1.8,8.9-3.1
	c1.2-1.1,1.9-2.7,1.9-4.3c0-2.6-2.2-4.2-6-4.2c-2-0.1-3.9,0.4-5.6,1.4c2.2,0.2,3.2,1.1,3.4,3.2v0.1c0,2.7-3.2,5.1-6.6,5.1
	c-2.9,0-5-1.7-5-3.9c0-2.7,1.9-5.7,4.6-7.4c3.2-2,7.7-3,13-3c8.1,0,13.3,2.5,13.3,6.6c-0.1,1.9-0.4,3.7-0.8,5.5l-2.7,12.7
	c-0.1,0.6-0.2,1.1-0.1,1.7c-0.1,0.7,0.4,1.4,1.1,1.5c0.1,0,0.2,0,0.3,0c1.2,0,1.9-0.9,2.4-3.1l0.6-2.9h4.2L42,110.2z M24.6,102.9
	c-1.7,0.8-3.2,1.5-3.7,1.8l-3.5,1.5c-1.9,0.6-3.2,2.2-3.4,4.2c0,1.8,1.3,3,3.4,3c3.1,0,5.4-2,6.1-5.6L24.6,102.9z"/>
<path class="st0" d="M43.5,113.5h1.9c2.7-0.1,3.4-0.6,4-3.3l3.2-15c0.1-0.6,0.2-1.1,0.2-1.7c0-1.2-0.7-1.6-2.8-1.6h-1.9l1.2-5.6
	h16.2l-1.1,5.1c4.6-4.5,8-6,13.2-6s8.8,2.5,8.8,6.5c-0.1,1.9-0.3,3.8-0.8,5.7l-2.7,12.7c-0.1,0.5-0.2,1.1-0.2,1.7
	c0,1.2,0.7,1.6,2.7,1.6h1.6l-1.2,5.6H65.4l1.2-5.6h0.8c2.7-0.1,3.3-0.6,3.9-3.3L74,97.6c0.1-0.8,0.2-1.6,0.2-2.4
	c0-2.2-1.4-3.4-3.8-3.4c-3.6,0-6.2,2.7-7.1,7.4l-2.4,11.1c-0.1,0.6-0.2,1.1-0.2,1.7c0,1.2,0.7,1.6,2.8,1.6h0.7l-1.2,5.6H42.3
	L43.5,113.5z"/>
<path class="st0" d="M117,72.4h17.2l-8.1,37.9c-0.1,0.6-0.2,1.1-0.2,1.7c0,1.2,0.7,1.6,2.8,1.6h1.6l-1.2,5.5h-16l1-4.5
	c-4.2,4.4-6.9,5.7-11.5,5.7c-7,0-10.8-3.8-10.8-10.8c0-6.2,2-12.9,5.2-17.4s7.8-7,12.8-7c4,0,6.4,1.3,9,4.8l1.9-8.7
	c0.2-0.6,0.3-1.2,0.3-1.8c0-1-0.9-1.5-2.9-1.5h-2.3L117,72.4z M106.6,97.5c-1.2,3.7-1.9,7.5-2.2,11.3c0,3.4,1.5,5.4,3.9,5.4
	s4.4-1.7,6-5.2c1.6-4,2.4-8.1,2.6-12.4c0-3.4-1.2-5-3.9-5S107.9,93.9,106.6,97.5z"/>
<path class="st0" d="M199.6,101c-1.4,5.2-2.7,8.1-5.2,11.2c-4.4,5.5-11,8.2-19.7,8.2c-7.6,0-12.6-2-16.2-6.3
	c-2.7-3.4-4.1-7.6-4-11.9c0-17.1,13.4-31.2,29.7-31.2c5.8,0,8.4,0.9,13.1,4.6l2.2-3.7h6.4l-4.1,19h-6.8c0.1-1.8,0.2-3.1,0.2-3.9
	c0-5.5-3.7-9.1-9.3-9.1c-4.5,0-8.4,2.4-11.4,7s-5,11.8-5,18.2c0,6.8,3.2,10.5,9,10.5c3.4,0,6.7-1.4,9-3.9c2.3-2.2,3.4-4.1,4.8-8.6
	L199.6,101z"/>
<path class="st0" d="M201.4,113.5h2.1c2.7-0.1,3.3-0.6,3.9-3.3l3.2-15c0.1-0.5,0.2-1.1,0.2-1.6c0-1.3-0.7-1.6-2.8-1.6h-2l1.2-5.7
	h16.4l-0.7,3.3c3.7-3.1,6.1-4.2,9.5-4.2c4,0,6.4,2.2,6.4,5.9c0,4.6-3.4,8.4-7.8,8.4c-2.5,0-4.2-1.5-4.2-3.9c0-2.6,1.4-4.3,4.4-5.2
	c-0.6-0.3-1.2-0.5-1.9-0.6c-3.4,0-6.8,4.1-8.1,9.9l-2.2,10.4c-0.1,0.6-0.2,1.1-0.2,1.7c0,1.2,0.7,1.6,2.7,1.6h2.9l-1.2,5.6h-23
	L201.4,113.5z"/>
<path class="st0" d="M277,98c0,12.9-9.8,22.3-23.4,22.3c-9.8,0-15.7-4.9-15.7-12.9c0-13,9.8-22.3,23.4-22.3
	C271.2,85,277,89.9,277,98z M252.5,97.1c-1.4,4-2.2,8.1-2.5,12.2c0,3.4,1.5,5,5,5c3.6,0,6-1.9,7.4-6.1c1.3-4,2.2-8.1,2.5-12.2
	c0-3.4-1.5-5-5-5C256.3,91,253.9,92.9,252.5,97.1z"/>
<path class="st0" d="M277.5,119.4l2.6-12.2h5.5c0.8,3.4,1.8,5,4.3,6.2c1.4,0.6,2.8,1,4.3,0.9c3.6,0,5.8-1.3,5.8-3.6
	c0-1.5-0.5-1.7-8.3-3.9c-7.2-2-9.9-4.3-9.9-8.6c0.2-3.6,1.8-6.9,4.6-9.2c3.1-2.6,7.7-4,13.2-4c4,0,6.1,0.6,10.1,2.7l1.2-1.8h5
	l-2.2,10.4h-5c-1.6-3.1-2.8-4.2-5.3-5c-1.2-0.4-2.5-0.6-3.8-0.6c-2.9,0-4.9,1.5-4.9,3.5c0,1.6,0.8,2.1,6.7,3.6
	c5.4,1.5,6.3,1.8,8.3,3.1c2,1.4,3.3,3.6,3.3,6.1c0,2.9-1.8,6.4-4.4,8.8c-3.1,2.7-8.3,4.4-13.6,4.4c-4,0-6-0.6-11-3.3l-1.5,2.4
	L277.5,119.4z"/>
<path class="st0" d="M315.7,119.4l2.6-12.2h5.5c0.8,3.4,1.8,5,4.3,6.2c1.4,0.6,2.8,1,4.3,0.9c3.6,0,5.8-1.3,5.8-3.6
	c0-1.5-0.5-1.7-8.3-3.9c-7.2-2-9.9-4.3-9.9-8.6c0.2-3.6,1.8-6.9,4.6-9.2c3.1-2.6,7.7-4,13.2-4c4,0,6.1,0.6,10.1,2.7l1.2-1.8h5
	L352,96.4h-5c-1.6-3.1-2.8-4.2-5.3-5c-1.2-0.4-2.5-0.6-3.8-0.6c-2.9,0-4.9,1.5-4.9,3.5c0,1.6,0.8,2.1,6.6,3.6
	c5.4,1.5,6.3,1.8,8.3,3.1c2,1.4,3.3,3.6,3.3,6.1c0,2.9-1.8,6.4-4.4,8.8c-3.1,2.7-8.3,4.4-13.6,4.4c-4,0-6-0.6-11-3.3l-1.5,2.4
	L315.7,119.4z"/>
<path class="st0" d="M364.3,119.2h-7.5l8-37.9c0.1-0.6,0.2-1.1,0.2-1.7c0-1.3-0.7-1.6-2.8-1.6h-2.1l1.2-5.7h16.8L374.4,90
	c4.1-3.5,7.1-4.8,11.1-4.8c6.4,0,10.3,4.3,10.3,11.6c0,7-2.7,14.6-6.6,18.8c-2.9,3.1-7.1,4.8-11.3,4.8c-4.4,0-6.7-1.3-9.6-5.1
	L364.3,119.2z M373.1,97.5c-1.2,3.7-1.9,7.5-2.2,11.3c0,3.4,1.5,5.4,3.9,5.4s4.5-1.7,6-5.2c1.6-4,2.4-8.1,2.6-12.4
	c0-3.4-1.2-5-3.9-5S374.3,93.9,373.1,97.5z"/>
<path class="st0" d="M438.1,110.2c-0.8,3.9-1.8,5.6-3.6,7.3c-2.3,1.9-5.2,2.9-8.2,2.8c-2,0.1-3.9-0.4-5.5-1.5
	c-0.8-0.6-1.3-1.6-1.8-3.4c-4.5,3.7-7.7,5-12.5,5c-5.5,0-8.6-2.7-8.6-7.2c0-3,1.3-5.9,3.5-7.9c2.2-2.1,3.9-2.7,10.7-4.1
	c5.5-1.1,7.6-1.8,8.9-3.1c1.2-1.1,1.9-2.7,1.9-4.3c0-2.6-2.2-4.2-6-4.2c-2-0.1-3.9,0.4-5.6,1.4c2.2,0.2,3.2,1.1,3.4,3.2v0.1
	c0,2.7-3.1,5.1-6.6,5.1c-2.9,0-5-1.7-5-3.9c0-2.7,1.9-5.7,4.6-7.4c3.2-2,7.7-3,13-3c8.1,0,13.3,2.5,13.3,6.6
	c-0.1,1.9-0.4,3.7-0.8,5.5l-2.7,12.7c-0.1,0.6-0.2,1.1-0.1,1.7c-0.1,0.7,0.4,1.4,1.1,1.5c0.1,0,0.2,0,0.2,0c1.2,0,1.9-0.9,2.4-3.1
	l0.6-2.9h4.2L438.1,110.2z M420.7,102.9c-1.7,0.8-3.2,1.5-3.7,1.8l-3.5,1.5c-1.9,0.6-3.2,2.2-3.4,4.2c0,1.8,1.3,3,3.4,3
	c3.1,0,5.4-2,6.1-5.6L420.7,102.9z"/>
<path class="st0" d="M439.6,113.5h1.9c2.7-0.1,3.4-0.6,4-3.3l3.1-15c0.1-0.6,0.2-1.1,0.2-1.7c0-1.2-0.7-1.6-2.8-1.6h-1.9l1.2-5.6
	h16.2l-1.1,5.1c4.5-4.5,8-6,13.2-6s8.8,2.5,8.8,6.5c-0.1,1.9-0.3,3.8-0.8,5.7l-2.7,12.7c-0.1,0.5-0.2,1.1-0.2,1.7
	c0,1.2,0.7,1.6,2.7,1.6h1.6l-1.2,5.6h-20.4l1.2-5.6h0.8c2.7-0.1,3.3-0.6,3.9-3.3l2.7-12.7c0.1-0.8,0.2-1.6,0.2-2.4
	c0-2.2-1.4-3.4-3.9-3.4c-3.6,0-6.2,2.7-7.1,7.4l-2.4,11.1c-0.1,0.6-0.2,1.1-0.2,1.7c0,1.2,0.7,1.6,2.8,1.6h0.7l-1.2,5.6h-20.7
	L439.6,113.5z"/>
<path class="st0" d="M504.8,101.1l11-7.5c0.4-0.2,0.7-0.7,0.8-1.1c0-0.4-0.6-0.6-1.8-0.6c-0.7,0-1.6,0.1-3.2,0.1l1.2-5.8H533
	l-1.3,5.8h-1.1c-2.6,0-3.6,0.4-6,2l-5,3.6l5,13.1c0.8,2,1.7,2.6,3.8,2.6c0.4,0,0.8,0,1.2-0.1l-1.3,5.8H508l1.3-5.8
	c2.9,0,3.4-0.1,3.4-1.1c0-0.5-0.2-1-0.3-1.5l-2.4-6.6l-6.7,4.6l-0.3,1.5c-0.2,0.6-0.3,1.2-0.3,1.8c0,1,0.6,1.3,2.2,1.3
	c0.2,0,0.5,0,0.7-0.1l-1.2,5.8h-19.8l1.3-5.8h1.5c2.8,0.1,3.2-0.3,3.9-3.1l6-28c0.2-0.9,0.4-1.9,0.4-2.9c0-0.9-0.8-1.3-2.7-1.3h-1.7
	l1.2-5.7H511L504.8,101.1z"/>
</svg>
