<svg id="Layer_1" data-name="Layer 1" xmlns="http://www.w3.org/2000/svg" viewBox="0 0 226.91 226.6"><defs><style>.cls-1{fill:#d3ad31;}.cls-2{fill:#fff;stroke:#533131;stroke-width:2px;}</style></defs><circle class="cls-1" cx="113.3" cy="113.3" r="113.3"/><path class="cls-2" d="M83.65,99.43c0,23-16.4,41.5-36.7,41.5-13.8,0-23.1-9-23.1-22.3,0-10.2,3.8-21.2,9.6-28.31,7.1-8.5,16.9-13.3,27.1-13.3C74.35,77,83.65,86,83.65,99.43Zm-37-2.1c-2.9,8.2-5,18.6-5,25.5,0,6.5,2.3,9.4,7.4,9.4s9.1-3.9,11.9-11.6c2.9-8.2,5-18.7,5-25.4s-2.3-9.51-7.4-9.51S49.45,89.52,46.65,97.33Z"/><path class="cls-2" d="M146.75,99.43c0,23-16.4,41.5-36.7,41.5-13.8,0-23.1-9-23.1-22.3,0-10.2,3.8-21.2,9.6-28.31,7.1-8.5,16.9-13.3,27.1-13.3C137.45,77,146.75,86,146.75,99.43Zm-37-2.1c-2.9,8.2-5,18.6-5,25.5,0,6.5,2.3,9.4,7.4,9.4s9.1-3.9,11.9-11.6c2.9-8.2,5-18.7,5-25.4s-2.3-9.51-7.4-9.51S112.55,89.52,109.75,97.33Z"/><path class="cls-2" d="M145.75,139.73l3.7-17.5h7.9c1.1,4.9,2.6,7.1,6.2,8.8a13.48,13.48,0,0,0,6.2,1.3c5.1,0,8.2-1.9,8.2-5.1,0-2.1-.7-2.4-11.9-5.5-10.3-2.8-14.1-6.1-14.1-12.3,0-4.6,2.5-9.6,6.6-13.11,4.4-3.7,11-5.7,18.9-5.7,5.7,0,8.7.81,14.5,3.9l1.7-2.59h7.1l-3.2,14.9h-7.1c-2.3-4.4-4-6-7.6-7.2a16.71,16.71,0,0,0-5.4-.9c-4.1,0-7,2.1-7,5,0,2.3,1.2,3,9.5,5.2,7.7,2.1,9,2.6,11.8,4.5a10.48,10.48,0,0,1,4.7,8.7c0,4.2-2.5,9.1-6.3,12.5-4.4,3.9-11.8,6.3-19.4,6.3-5.7,0-8.6-.9-15.7-4.7l-2.2,3.5Z"/></svg>