<svg id="Layer_1" data-name="Layer 1" xmlns="http://www.w3.org/2000/svg" viewBox="0 0 226.91 226.6"><defs><style>.cls-1{fill:#d3ad31;}.cls-2{fill:#fff;stroke:#533131;stroke-width:2px;}</style></defs><circle class="cls-1" cx="113.3" cy="113.3" r="113.3"/><path class="cls-2" d="M31,98.42c0-6.5,4.3-13.3,11.2-17.3,4.6-2.7,10.9-4.2,18-4.2,13.8,0,21.9,4.6,21.9,12.5a12.36,12.36,0,0,1-2.8,7.7c-2.2,2.71-4.5,4.21-10.2,6.61,7.5,3.3,10.4,6.9,10.4,13.1,0,7.4-3.8,13.9-10.7,18.3-6.4,4.1-13.3,5.8-23.1,5.8-15.3,0-23.2-4.8-23.2-14.3,0-8,5.3-14.1,15.2-17.3C32.75,106,31,103,31,98.42ZM35,125c0,5.1,4.6,8.1,12.4,8.1a23.59,23.59,0,0,0,9.6-1.7c2.9-1.4,5.2-4.6,5.2-7.3,0-3-4.5-5.6-17.8-10.4C37.55,117,35,120.23,35,125Zm34.5-34.11c0-3.8-3.7-6-10.2-6-6.9,0-11.7,2.9-11.7,7.1,0,1.9,1,3.31,3.4,4.4.2.11,3.9,1.41,11,3.81C67.25,97.53,69.45,94.72,69.45,90.92Z"/><path class="cls-2" d="M146.75,99.43c0,23-16.4,41.5-36.7,41.5-13.8,0-23.1-9-23.1-22.3,0-10.2,3.8-21.21,9.6-28.3,7.1-8.51,16.9-13.31,27.1-13.31C137.45,77,146.75,86,146.75,99.43Zm-37-2.1c-2.9,8.2-5,18.6-5,25.5,0,6.5,2.3,9.4,7.4,9.4s9.1-3.9,11.9-11.6c2.9-8.2,5-18.7,5-25.41s-2.3-9.5-7.4-9.5S112.55,89.52,109.75,97.33Z"/><path class="cls-2" d="M145.75,139.73l3.7-17.5h7.9c1.1,4.9,2.6,7.1,6.2,8.8a13.48,13.48,0,0,0,6.2,1.3c5.1,0,8.2-1.9,8.2-5.1,0-2.1-.7-2.4-11.9-5.5-10.3-2.8-14.1-6.1-14.1-12.3,0-4.6,2.5-9.6,6.6-13.1,4.4-3.71,11-5.71,18.9-5.71,5.7,0,8.7.8,14.5,3.91l1.7-2.61h7.1l-3.2,14.91h-7.1c-2.3-4.4-4-6-7.6-7.21a17.26,17.26,0,0,0-5.4-.89c-4.1,0-7,2.1-7,5,0,2.3,1.2,3,9.5,5.2,7.7,2.1,9,2.6,11.8,4.5a10.48,10.48,0,0,1,4.7,8.7c0,4.2-2.5,9.1-6.3,12.5-4.4,3.9-11.8,6.3-19.4,6.3-5.7,0-8.6-.9-15.7-4.7l-2.2,3.5Z"/></svg>