<svg id="Layer_1" data-name="Layer 1" xmlns="http://www.w3.org/2000/svg" viewBox="0 0 226.91 226.6"><defs><style>.cls-1{fill:#d3ad31;}.cls-2{fill:#fff;stroke:#533131;stroke-width:1.5px;}</style></defs><circle class="cls-1" cx="113.3" cy="113.3" r="113.3"/><path class="cls-2" d="M49.2,103.42c5.9-.5,8.5-1.3,10.8-3.4a10.06,10.06,0,0,0,3.5-7.5c0-4.6-3.8-7.3-10.3-7.3-4.1,0-6.8.9-10.6,3.4h1.2c3.5,0,5.4,1.7,5.4,4.9,0,5.1-4.7,9.3-10.4,9.3-4.7,0-7.4-2.4-7.4-6.6s2.4-8.9,6.1-12.2c5.1-4.7,12.4-7,21.8-7,14.6,0,22.5,4.6,22.5,13.1a16.31,16.31,0,0,1-5,11.3c-2.8,2.7-5.3,3.9-10.9,5.1,5,1.5,7,2.6,9.1,4.61a9.91,9.91,0,0,1,3.2,7.4c0,6.5-4.2,13.4-10.5,17.4-5.4,3.5-12.9,5.1-23.5,5.1-7.8,0-13.1-1.3-16.6-4.1a12.37,12.37,0,0,1-4.8-9.6c0-7.51,5.8-13.6,12.8-13.6,4.5,0,7.4,2.59,7.4,6.5a9.54,9.54,0,0,1-2.3,6c-1.9,2-3.6,2.7-7.6,3.1,3.4,2.6,5.4,3.2,10.3,3.2,5.8,0,10.1-1.8,12.8-5.4a14.33,14.33,0,0,0,3-8.31,6.18,6.18,0,0,0-4.3-6.19c-1.8-.5-2.8-.6-7.5-.9Z"/><path class="cls-2" d="M146.7,99.42c0,23-16.4,41.51-36.7,41.51-13.8,0-23.1-9-23.1-22.3,0-10.21,3.8-21.21,9.6-28.31,7.1-8.5,16.9-13.3,27.1-13.3C137.4,77,146.7,86,146.7,99.42Zm-37-2.1c-2.9,8.2-5,18.61-5,25.51,0,6.5,2.3,9.4,7.4,9.4s9.1-3.9,11.9-11.6c2.9-8.21,5-18.71,5-25.41s-2.3-9.5-7.4-9.5S112.5,89.52,109.7,97.32Z"/><path class="cls-2" d="M145.7,139.73l3.7-17.5h7.9c1.1,4.9,2.6,7.1,6.2,8.8a13.48,13.48,0,0,0,6.2,1.3c5.1,0,8.2-1.9,8.2-5.1,0-2.1-.7-2.4-11.9-5.5-10.3-2.8-14.1-6.1-14.1-12.31,0-4.6,2.5-9.6,6.6-13.1,4.4-3.7,11-5.7,18.9-5.7,5.7,0,8.7.8,14.5,3.9l1.7-2.6h7.1l-3.2,14.9h-7.1c-2.3-4.4-4-6-7.6-7.2a17,17,0,0,0-5.4-.9c-4.1,0-7,2.1-7,5,0,2.29,1.2,3,9.5,5.19,7.7,2.11,9,2.61,11.8,4.5a10.51,10.51,0,0,1,4.7,8.71c0,4.2-2.5,9.1-6.3,12.5-4.4,3.9-11.8,6.3-19.4,6.3-5.7,0-8.6-.9-15.7-4.7l-2.2,3.5Z"/></svg>