<svg id="Layer_1" data-name="Layer 1" xmlns="http://www.w3.org/2000/svg" viewBox="0 0 395 395"><defs><style>.cls-1{fill:#533131;}.cls-2{fill:#d3ad31;stroke:#fff;stroke-width:2px;}</style></defs><circle class="cls-1" cx="197.5" cy="197.5" r="197.5"/><path class="cls-2" d="M43.45,230.62c1.9-13.9,9.5-21.7,31.7-32.2,7.3-3.7,10.8-8.2,10.8-13.6,0-4.3-4-7.2-10-7.2s-9.6,1.8-13.1,6.8a23.62,23.62,0,0,1,3.5-.5,5.13,5.13,0,0,1,5.3,5.2c0,5.2-5.2,9.8-11.2,9.8-5.2,0-8.3-3-8.3-8,0-12.1,14.1-22.5,30.4-22.5,14,0,22.4,6.1,22.4,16.2a20.76,20.76,0,0,1-7.9,16,36.92,36.92,0,0,1-10.8,5.9c-1.7.6-4.8,1.5-10.9,3.2-9.6,2.7-12.7,4.2-17.8,9.1,5.8-2.6,8.6-3.3,13.1-3.3,3.5,0,3.5,0,13.1,2.1a11.08,11.08,0,0,0,1.9.2c3.8,0,5.8-2.3,7.2-8.5h8.7c-1.6,8.4-2.8,11.9-5.3,15.3-3.4,4.8-9.9,7.8-17,7.8-4.2,0-6.2-.6-12.2-3.3-3.7-1.7-6.4-2.4-8.7-2.4-2.5,0-4.3,1.1-6.4,3.9Z"/><path class="cls-2" d="M170.45,190.82c0,23-16.4,41.5-36.7,41.5-13.8,0-23.1-9-23.1-22.3,0-10.2,3.8-21.2,9.6-28.3,7.1-8.5,16.9-13.3,27.1-13.3C161.15,168.42,170.45,177.42,170.45,190.82Zm-37-2.1c-2.9,8.2-5,18.6-5,25.5,0,6.5,2.3,9.4,7.4,9.4s9.1-3.9,11.9-11.6c2.9-8.2,5-18.7,5-25.4s-2.3-9.5-7.4-9.5S136.25,180.92,133.45,188.72Z"/><path class="cls-2" d="M178.15,222.32h4.4c7.4-.4,7.6-.6,9-7.6l5.9-28h-11.8l1.8-8.1c9.7-.4,14.5-2.7,18.3-8.5h12.7l-9.6,45.1a25.28,25.28,0,0,0-.6,4.2c0,2.4,1.2,2.9,6.4,2.9h3.9l-1.7,8.3h-40.5Z"/><path class="cls-2" d="M296.65,190.82c0,23-16.4,41.5-36.7,41.5-13.8,0-23.1-9-23.1-22.3,0-10.2,3.8-21.2,9.6-28.3,7.1-8.5,16.9-13.3,27.1-13.3C287.35,168.42,296.65,177.42,296.65,190.82Zm-37-2.1c-2.9,8.2-5,18.6-5,25.5,0,6.5,2.3,9.4,7.4,9.4s9.1-3.9,11.9-11.6c2.9-8.2,5-18.7,5-25.4s-2.3-9.5-7.4-9.5S262.45,180.92,259.65,188.72Z"/><path class="cls-2" d="M295.65,231.12l3.7-17.5h7.9c1.1,4.9,2.6,7.1,6.2,8.8a13.48,13.48,0,0,0,6.2,1.3c5.1,0,8.2-1.9,8.2-5.1,0-2.1-.7-2.4-11.9-5.5-10.3-2.8-14.1-6.1-14.1-12.3,0-4.6,2.5-9.6,6.6-13.1,4.4-3.7,11-5.7,18.9-5.7,5.7,0,8.7.8,14.5,3.9l1.7-2.6h7.1l-3.2,14.9h-7.1c-2.3-4.4-4-6-7.6-7.2a17,17,0,0,0-5.4-.9c-4.1,0-7,2.1-7,5,0,2.3,1.2,3,9.5,5.2,7.7,2.1,9,2.6,11.8,4.5a10.48,10.48,0,0,1,4.7,8.7c0,4.2-2.5,9.1-6.3,12.5-4.4,3.9-11.8,6.3-19.4,6.3-5.7,0-8.6-.9-15.7-4.7l-2.2,3.5Z"/></svg>